# Converted from GLB: low_poly_road.glb
o Cube_Material_0
g Prim_0_0
v -0.951868 0.017192 -1.498800
v -1.000000 -0.017193 -1.498800
v -1.500000 -0.017193 -1.498800
v 0.951868 0.017193 1.498800
v 1.000000 0.067564 1.498800
v 0.951868 0.081819 1.498800
v 1.000000 0.067563 -1.498800
v 0.951868 0.017192 -1.498800
v 0.951868 0.081818 -1.498800
v 1.000000 0.081818 -1.498800
v 1.000000 0.081819 1.498800
v 0.951868 0.017192 -1.498800
v -0.951868 0.017192 -1.498800
v -0.951868 0.017193 1.498800
v 0.951868 0.017193 1.498800
v 1.500000 -0.017192 1.498800
v 0.951868 0.017193 1.498800
v -0.951868 0.017193 1.498800
v -1.500000 -0.017192 1.498800
v -1.000000 -0.017193 -1.498800
v -0.951868 0.017192 -1.498800
v 0.951868 0.017192 -1.498800
v 1.500000 -0.017193 -1.498800
v 1.500000 -0.017193 -1.498800
v 1.500000 0.067563 -1.498800
v -1.500000 0.067563 -1.498800
v -1.000000 0.067563 -1.498800
v -1.000000 0.067564 1.498800
v -1.000000 0.067563 -1.498800
v -1.500000 0.067563 -1.498800
v -1.500000 0.067564 1.498800
v 1.000000 0.067563 -1.498800
v 1.000000 0.067564 1.498800
v 1.500000 0.067564 1.498800
v 1.500000 0.067563 -1.498800
v -1.500000 -0.017193 -1.498800
v -1.500000 -0.017192 1.498800
v -1.500000 0.067564 1.498800
v -1.500000 0.067563 -1.498800
v -1.500000 -0.017192 1.498800
v -0.951868 0.017193 1.498800
v -1.000000 0.067564 1.498800
v -1.500000 0.067564 1.498800
v 1.500000 -0.017192 1.498800
v 1.500000 0.067564 1.498800
v 1.500000 -0.017192 1.498800
v 1.500000 -0.017193 -1.498800
v 1.500000 0.067563 -1.498800
v 1.500000 0.067564 1.498800
v 0.951868 0.017192 -1.498800
v 0.951868 0.017193 1.498800
v 0.951868 0.081819 1.498800
v 0.951868 0.081818 -1.498800
v 1.000000 0.067564 1.498800
v 1.000000 0.067563 -1.498800
v 1.000000 0.081818 -1.498800
v 1.000000 0.081819 1.498800
v -0.951868 0.081819 1.498800
v -1.000000 0.081819 1.498800
v 1.000000 0.081819 1.498800
v 1.000000 0.081818 -1.498800
v 0.951868 0.081818 -1.498800
v 0.951868 0.081819 1.498800
v -1.000000 0.081818 -1.498800
v -1.000000 0.081819 1.498800
v -0.951868 0.081819 1.498800
v -0.951868 0.081818 -1.498800
v -1.000000 0.081818 -1.498800
v -0.951868 0.081818 -1.498800
v -1.000000 0.067563 -1.498800
v -1.000000 0.067564 1.498800
v -1.000000 0.081819 1.498800
v -1.000000 0.081818 -1.498800
v -0.951868 0.017193 1.498800
v -0.951868 0.017192 -1.498800
v -0.951868 0.081818 -1.498800
v -0.951868 0.081819 1.498800
vn 0.000000 -0.000000 -1.000000
vn 0.000000 -0.000000 -1.000000
vn 0.000000 -0.000000 -1.000000
vn 0.000000 0.000000 1.000000
vn 0.000000 0.000000 1.000000
vn 0.000000 0.000000 1.000000
vn 0.000000 -0.000000 -1.000000
vn 0.000000 -0.000000 -1.000000
vn 0.000000 -0.000000 -1.000000
vn 0.000000 -0.000000 -1.000000
vn 0.000000 0.000000 1.000000
vn 0.000000 1.000000 -0.000000
vn 0.000000 1.000000 -0.000000
vn 0.000000 1.000000 -0.000000
vn 0.000000 1.000000 -0.000000
vn 0.000000 -0.000003 1.000000
vn 0.000000 -0.000003 1.000000
vn 0.000000 -0.000003 1.000000
vn 0.000000 -0.000003 1.000000
vn 0.000000 -0.000001 -1.000000
vn 0.000000 -0.000001 -1.000000
vn 0.000000 -0.000001 -1.000000
vn 0.000000 -0.000001 -1.000000
vn 0.000000 -0.000000 -1.000000
vn 0.000000 -0.000000 -1.000000
vn 0.000000 -0.000000 -1.000000
vn 0.000000 -0.000000 -1.000000
vn 0.000000 1.000000 -0.000000
vn 0.000000 1.000000 -0.000000
vn 0.000000 1.000000 -0.000000
vn 0.000000 1.000000 -0.000000
vn 0.000000 1.000000 -0.000000
vn 0.000000 1.000000 -0.000000
vn 0.000000 1.000000 -0.000000
vn 0.000000 1.000000 -0.000000
vn -1.000000 0.000000 0.000000
vn -1.000000 0.000000 0.000000
vn -1.000000 0.000000 0.000000
vn -1.000000 0.000000 0.000000
vn 0.000000 0.000000 1.000000
vn 0.000000 0.000000 1.000000
vn 0.000000 0.000000 1.000000
vn 0.000000 0.000000 1.000000
vn 0.000000 0.000000 1.000000
vn 0.000000 0.000000 1.000000
vn 1.000000 0.000000 0.000000
vn 1.000000 0.000000 0.000000
vn 1.000000 0.000000 0.000000
vn 1.000000 0.000000 0.000000
vn -1.000000 0.000000 0.000000
vn -1.000000 0.000000 0.000000
vn -1.000000 0.000000 0.000000
vn -1.000000 0.000000 0.000000
vn 1.000000 0.000000 0.000000
vn 1.000000 0.000000 0.000000
vn 1.000000 0.000000 0.000000
vn 1.000000 0.000000 0.000000
vn 0.000000 0.000000 1.000000
vn 0.000000 0.000000 1.000000
vn 0.000000 1.000000 -0.000000
vn 0.000000 1.000000 -0.000000
vn 0.000000 1.000000 -0.000000
vn 0.000000 1.000000 -0.000000
vn 0.000000 1.000000 -0.000000
vn 0.000000 1.000000 -0.000000
vn 0.000000 1.000000 -0.000000
vn 0.000000 1.000000 -0.000000
vn 0.000000 -0.000000 -1.000000
vn 0.000000 -0.000000 -1.000000
vn -1.000000 0.000000 0.000000
vn -1.000000 0.000000 0.000000
vn -1.000000 0.000000 0.000000
vn -1.000000 0.000000 0.000000
vn 1.000000 0.000000 0.000000
vn 1.000000 0.000000 0.000000
vn 1.000000 0.000000 0.000000
vn 1.000000 0.000000 0.000000
vt 0.782902 0.246430
vt 0.782717 0.246430
vt 0.779449 0.246430
vt 0.795786 0.912017
vt 0.795933 0.912017
vt 0.795786 0.912017
vt 0.789936 0.246430
vt 0.789750 0.246430
vt 0.789750 0.246430
vt 0.789936 0.246430
vt 0.795933 0.912017
vt 0.752475 -0.002382
vt 0.252551 -0.002382
vt 0.252551 1.002382
vt 0.752475 1.002382
vt 0.798480 0.912017
vt 0.795786 0.912017
vt 0.790361 0.912017
vt 0.787626 0.912017
vt 0.782717 0.246430
vt 0.782902 0.246430
vt 0.789750 0.246430
vt 0.793152 0.246430
vt 0.793152 0.246430
vt 0.793152 0.246430
vt 0.779449 0.246430
vt 0.782717 0.246430
vt 0.239022 1.002382
vt 0.239022 -0.002382
vt 0.000492 -0.002382
vt 0.000492 1.002382
vt 0.766004 -0.002382
vt 0.766004 1.002382
vt 1.000764 1.002382
vt 1.000764 -0.002382
vt 0.033156 -0.002382
vt 0.033156 1.002382
vt 0.000492 1.002382
vt 0.000492 -0.002382
vt 0.787626 0.912017
vt 0.790361 0.912017
vt 0.790214 0.912017
vt 0.787626 0.912017
vt 0.798480 0.912017
vt 0.798480 0.912017
vt 0.969357 1.002382
vt 0.969357 -0.002382
vt 1.000764 -0.002382
vt 1.000764 1.002382
vt 0.776344 -0.002382
vt 0.776344 1.002382
vt 0.752475 1.002382
vt 0.752475 -0.002382
vt 0.766004 1.002382
vt 0.766004 -0.002382
vt 0.766004 -0.002382
vt 0.766004 1.002382
vt 0.790361 0.912017
vt 0.790214 0.912017
vt 0.766004 1.002382
vt 0.766004 -0.002382
vt 0.752475 -0.002382
vt 0.752475 1.002382
vt 0.239022 -0.002382
vt 0.239022 1.002382
vt 0.252551 1.002382
vt 0.252551 -0.002382
vt 0.782717 0.246430
vt 0.782902 0.246430
vt 0.239022 -0.002382
vt 0.239022 1.002382
vt 0.239022 1.002382
vt 0.239022 -0.002382
vt 0.231194 1.002382
vt 0.231194 -0.002382
vt 0.252551 -0.002382
vt 0.252551 1.002382
f 1/1/1 2/2/2 3/3/3
f 4/4/4 5/5/5 6/6/6
f 7/7/7 8/8/8 9/9/9
f 7/7/7 9/9/9 10/10/10
f 6/6/6 5/5/5 11/11/11
f 12/12/12 13/13/13 14/14/14
f 12/12/12 14/14/14 15/15/15
f 16/16/16 17/17/17 18/18/18
f 16/16/16 18/18/18 19/19/19
f 20/20/20 21/21/21 22/22/22
f 20/20/20 22/22/22 23/23/23
f 24/24/24 8/8/8 7/7/7
f 24/24/24 7/7/7 25/25/25
f 1/1/1 3/3/3 26/26/26
f 1/1/1 26/26/26 27/27/27
f 28/28/28 29/29/29 30/30/30
f 28/28/28 30/30/30 31/31/31
f 32/32/32 33/33/33 34/34/34
f 32/32/32 34/34/34 35/35/35
f 36/36/36 37/37/37 38/38/38
f 36/36/36 38/38/38 39/39/39
f 40/40/40 41/41/41 42/42/42
f 40/40/40 42/42/42 43/43/43
f 4/4/4 44/44/44 45/45/45
f 4/4/4 45/45/45 5/5/5
f 46/46/46 47/47/47 48/48/48
f 46/46/46 48/48/48 49/49/49
f 50/50/50 51/51/51 52/52/52
f 50/50/50 52/52/52 53/53/53
f 54/54/54 55/55/55 56/56/56
f 54/54/54 56/56/56 57/57/57
f 42/42/42 41/41/41 58/58/58
f 42/42/42 58/58/58 59/59/59
f 60/60/60 61/61/61 62/62/62
f 60/60/60 62/62/62 63/63/63
f 64/64/64 65/65/65 66/66/66
f 64/64/64 66/66/66 67/67/67
f 1/1/1 27/27/27 68/68/68
f 1/1/1 68/68/68 69/69/69
f 70/70/70 71/71/71 72/72/72
f 70/70/70 72/72/72 73/73/73
f 74/74/74 75/75/75 76/76/76
f 74/74/74 76/76/76 77/77/77
