# Converted from GLB: torch_lowpoly_with_flame.glb
mtllib torch_brazier.mtl
o Flame
g Flame
usemtl Flame_mat
v 0.000000 1.952355 -1.638774
v 0.000000 1.952355 2.311470
v 0.000000 5.902599 2.311470
v 0.000000 5.902599 -1.638774
v -1.975122 1.952355 0.336348
v 1.975122 1.952355 0.336348
v 1.975122 5.902599 0.336348
v -1.975122 5.902599 0.336348
vt 0.531230 0.471969
vt 0.964092 0.471969
vt 0.964092 0.039108
vt 0.531230 0.039108
vt 0.035325 0.468294
vt 0.468186 0.468294
vt 0.468186 0.035433
vt 0.035325 0.035433
vn -1.000000 0.000000 0.000000
vn -1.000000 0.000000 0.000000
vn -1.000000 0.000000 0.000000
vn -1.000000 0.000000 0.000000
vn 0.000000 -0.000000 1.000000
vn 0.000000 -0.000000 1.000000
vn 0.000000 -0.000000 1.000000
vn 0.000000 -0.000000 1.000000
f 1/1/1 2/2/2 3/3/3
f 1/1/1 3/3/3 4/4/4
f 5/5/5 6/6/6 7/7/7
f 5/5/5 7/7/7 8/8/8