# Converted from GLB: love_low_poly.glb
o Mesh_Object_0
g Prim_0_0
v 14.454363 -11.879212 64.201752
v -0.601586 -12.931934 54.790939
v -0.468751 -18.953466 43.497173
v 25.203611 12.418361 25.057255
v 15.275478 8.713692 11.973959
v 12.055439 15.394978 18.083845
v -15.682576 -15.885799 21.197844
v -2.877537 -13.052108 10.359144
v -0.317891 -18.422958 21.449669
v 26.208836 -6.104374 19.887838
v 15.779199 1.908902 9.045795
v 31.225437 1.542830 24.454952
v -2.790927 4.364397 1.632008
v -18.039904 11.262644 15.902317
v -2.161218 8.451745 3.776489
v 19.282001 18.493053 48.688103
v -0.550812 18.458006 44.611736
v 15.686455 15.321085 59.658379
v 25.264833 16.447521 53.617939
v 24.844812 17.696793 42.214237
v 19.282001 18.493053 48.688103
v 33.555565 -12.726187 52.308025
v 34.609165 -11.641262 38.586411
v 39.435028 -6.070395 48.780796
v -27.888723 -2.044044 66.673935
v -37.032291 -5.209189 57.572704
v -24.605963 -11.034577 64.314117
v -25.622992 -17.519291 39.812302
v -9.903693 -19.721617 31.231731
v -21.497335 -18.034496 52.617340
v -7.008282 15.624836 15.882877
v -18.039904 11.262644 15.902317
v -16.458445 17.633902 27.603226
v -5.858568 19.834324 37.325275
v -21.216053 18.171301 51.511520
v -0.550812 18.458006 44.611736
v 24.844812 17.696793 42.214237
v 14.813835 19.039238 31.766745
v 19.282001 18.493053 48.688103
v -0.268692 19.257769 24.304970
v -12.898990 19.290707 32.600121
v -5.858568 19.834324 37.325275
v -5.858568 19.834324 37.325275
v -12.898990 19.290707 32.600121
v -21.216053 18.171301 51.511520
v -33.555832 3.654229 62.260029
v -40.129734 3.332228 51.886940
v -37.032291 -5.209189 57.572704
v 32.578323 14.229384 44.377060
v 25.264833 16.447521 53.617939
v 37.729145 9.681540 51.310478
v 12.935194 -6.994718 67.087288
v 14.164755 1.400677 68.599388
v 0.023969 -6.434554 59.942474
v 19.282001 18.493053 48.688103
v 8.146022 19.781752 36.783298
v -5.858568 19.834324 37.325275
v 19.282001 18.493053 48.688103
v -5.858568 19.834324 37.325275
v -0.550812 18.458006 44.611736
v -2.161218 8.451745 3.776489
v 6.164936 3.818779 3.251431
v -2.790927 4.364397 1.632008
v 3.549940 -7.322858 3.311886
v 15.779199 1.908902 9.045795
v 15.051727 -7.715435 10.931263
v 15.779199 1.908902 9.045795
v 27.078951 6.408726 21.358650
v 31.225437 1.542830 24.454952
v 36.546467 8.645607 37.573841
v 37.729145 9.681540 51.310478
v 40.200478 0.179275 42.251022
v -18.912008 -9.669057 15.574472
v -17.654980 -0.164186 10.136164
v -4.547245 -6.786731 3.455156
v -2.790927 4.364397 1.632008
v 6.164936 3.818779 3.251431
v 3.549940 -7.322858 3.311886
v 5.204114 9.205099 5.994648
v -2.161218 8.451745 3.776489
v 3.739764 14.277926 12.446119
v -7.008282 15.624836 15.882877
v -16.458445 17.633902 27.603226
v -0.268692 19.257769 24.304970
v 27.078951 6.408726 21.358650
v 36.546467 8.645607 37.573841
v 31.225437 1.542830 24.454952
v 25.203611 12.418361 25.057255
v 18.991064 16.806873 27.723455
v 28.316271 15.448354 35.549145
v 3.739764 14.277926 12.446119
v -2.161218 8.451745 3.776489
v -7.008282 15.624836 15.882877
v -2.161218 8.451745 3.776489
v -18.039904 11.262644 15.902317
v -7.008282 15.624836 15.882877
v 28.316271 15.448354 35.549145
v 18.991064 16.806873 27.723455
v 14.813835 19.039238 31.766745
v 3.739764 14.277926 12.446119
v -7.008282 15.624836 15.882877
v -0.268692 19.257769 24.304970
v 15.779199 1.908902 9.045795
v 15.275478 8.713692 11.973959
v 27.078951 6.408726 21.358650
v 3.549940 -7.322858 3.311886
v 6.164936 3.818779 3.251431
v 15.779199 1.908902 9.045795
v 36.546467 8.645607 37.573841
v 25.203611 12.418361 25.057255
v 28.316271 15.448354 35.549145
v 37.729145 9.681540 51.310478
v 36.546467 8.645607 37.573841
v 32.578323 14.229384 44.377060
v 12.055439 15.394978 18.083845
v -0.268692 19.257769 24.304970
v 14.813835 19.039238 31.766745
v -0.268692 19.257769 24.304970
v -5.858568 19.834324 37.325275
v 8.146022 19.781752 36.783298
v 32.578323 14.229384 44.377060
v 36.546467 8.645607 37.573841
v 28.316271 15.448354 35.549145
v 32.578323 14.229384 44.377060
v 24.844812 17.696793 42.214237
v 25.264833 16.447521 53.617939
v 27.078951 6.408726 21.358650
v 15.275478 8.713692 11.973959
v 25.203611 12.418361 25.057255
v 27.078951 6.408726 21.358650
v 25.203611 12.418361 25.057255
v 36.546467 8.645607 37.573841
v -0.268692 19.257769 24.304970
v 12.055439 15.394978 18.083845
v 3.739764 14.277926 12.446119
v 12.055439 15.394978 18.083845
v 5.204114 9.205099 5.994648
v 3.739764 14.277926 12.446119
v 15.779199 1.908902 9.045795
v 6.164936 3.818779 3.251431
v 15.275478 8.713692 11.973959
v 6.164936 3.818779 3.251431
v -2.161218 8.451745 3.776489
v 5.204114 9.205099 5.994648
v 32.578323 14.229384 44.377060
v 28.316271 15.448354 35.549145
v 24.844812 17.696793 42.214237
v 24.844812 17.696793 42.214237
v 28.316271 15.448354 35.549145
v 14.813835 19.039238 31.766745
v -12.898990 19.290707 32.600121
v -28.229485 16.516182 37.459953
v -21.216053 18.171301 51.511520
v -16.458445 17.633902 27.603226
v -18.039904 11.262644 15.902317
v -28.229485 16.516182 37.459953
v -0.268692 19.257769 24.304970
v -16.458445 17.633902 27.603226
v -12.898990 19.290707 32.600121
v -16.458445 17.633902 27.603226
v -28.229485 16.516182 37.459953
v -12.898990 19.290707 32.600121
v 15.275478 8.713692 11.973959
v 5.204114 9.205099 5.994648
v 12.055439 15.394978 18.083845
v 5.204114 9.205099 5.994648
v 15.275478 8.713692 11.973959
v 6.164936 3.818779 3.251431
v 14.813835 19.039238 31.766745
v 8.146022 19.781752 36.783298
v 19.282001 18.493053 48.688103
v 14.813835 19.039238 31.766745
v -0.268692 19.257769 24.304970
v 8.146022 19.781752 36.783298
v 25.203611 12.418361 25.057255
v 12.055439 15.394978 18.083845
v 18.991064 16.806873 27.723455
v 12.055439 15.394978 18.083845
v 14.813835 19.039238 31.766745
v 18.991064 16.806873 27.723455
v 14.164755 1.400677 68.599388
v -0.002928 6.330510 60.121723
v 0.023969 -6.434554 59.942474
v -12.112509 3.145502 67.761383
v 0.023969 -6.434554 59.942474
v -0.002928 6.330510 60.121723
v -28.586061 -3.879725 21.817274
v -28.146107 4.437850 21.416645
v -17.654980 -0.164186 10.136164
v -39.522686 3.903405 40.431400
v -28.146107 4.437850 21.416645
v -36.909466 -4.003411 34.417801
v 27.671083 2.117627 67.336349
v 34.491066 -7.085855 59.828537
v 38.432030 4.010902 56.321747
v 38.432030 4.010902 56.321747
v 34.491066 -7.085855 59.828537
v 39.435028 -6.070395 48.780796
v 8.181353 -14.369490 14.098341
v 17.095646 -17.248802 26.333481
v -0.317891 -18.422958 21.449669
v 11.086140 -19.750080 33.749401
v 27.683235 -16.837654 39.957470
v 23.334185 -17.768118 51.027622
v -0.601586 -12.931934 54.790939
v -13.683616 -14.782846 59.698833
v -0.468751 -18.953466 43.497173
v 0.023969 -6.434554 59.942474
v -12.112509 3.145502 67.761383
v -12.431671 -9.142817 65.819885
v -39.522686 3.903405 40.431400
v -36.909466 -4.003411 34.417801
v -38.937603 -7.554348 45.338234
v -33.402077 -13.278490 51.433506
v -25.622992 -17.519291 39.812302
v -21.497335 -18.034496 52.617340
v -0.550812 18.458006 44.611736
v -21.216053 18.171301 51.511520
v -14.496170 13.187667 63.398071
v -33.555832 3.654229 62.260029
v -32.568401 12.598629 55.128471
v -40.129734 3.332228 51.886940
v 23.334185 -17.768118 51.027622
v 27.683235 -16.837654 39.957470
v 33.555565 -12.726187 52.308025
v 23.732216 -6.287457 67.184998
v 34.491066 -7.085855 59.828537
v 27.671083 2.117627 67.336349
v 13.858242 9.063100 66.428925
v 15.686455 15.321085 59.658379
v 0.383036 13.348976 54.395390
v 25.576990 10.821770 63.763515
v 27.671083 2.117627 67.336349
v 38.432030 4.010902 56.321747
v -17.654980 -0.164186 10.136164
v -18.912008 -9.669057 15.574472
v -28.586061 -3.879725 21.817274
v -36.909466 -4.003411 34.417801
v -32.256741 -12.618587 35.218052
v -38.937603 -7.554348 45.338234
v -22.750237 6.150287 67.682739
v -14.496170 13.187667 63.398071
v -27.419289 11.225383 62.040470
v -12.112509 3.145502 67.761383
v -22.750237 6.150287 67.682739
v -18.772049 -3.212688 68.787376
v 8.181353 -14.369490 14.098341
v 15.051727 -7.715435 10.931263
v 24.438213 -12.968680 25.389530
v 34.609165 -11.641262 38.586411
v 26.208836 -6.104374 19.887838
v 37.611206 -5.103442 36.898628
v -21.497335 -18.034496 52.617340
v -24.605963 -11.034577 64.314117
v -33.402077 -13.278490 51.433506
v -0.601586 -12.931934 54.790939
v -12.431671 -9.142817 65.819885
v -13.683616 -14.782846 59.698833
v -32.862442 9.140627 31.679790
v -39.522686 3.903405 40.431400
v -35.996128 11.840146 44.066555
v -40.129734 3.332228 51.886940
v -32.568401 12.598629 55.128471
v -35.996128 11.840146 44.066555
v 33.555565 -12.726187 52.308025
v 24.123825 -12.866476 61.401897
v 23.334185 -17.768118 51.027622
v 14.454363 -11.879212 64.201752
v -0.468751 -18.953466 43.497173
v 16.645035 -16.970324 56.145172
v -9.903693 -19.721617 31.231731
v -0.468751 -18.953466 43.497173
v -21.497335 -18.034496 52.617340
v -0.468751 -18.953466 43.497173
v 11.086140 -19.750080 33.749401
v 23.334185 -17.768118 51.027622
v 14.164755 1.400677 68.599388
v 23.732216 -6.287457 67.184998
v 27.671083 2.117627 67.336349
v 27.671083 2.117627 67.336349
v 25.576990 10.821770 63.763515
v 13.858242 9.063100 66.428925
v 0.383036 13.348976 54.395390
v -0.002928 6.330510 60.121723
v 13.858242 9.063100 66.428925
v -14.496170 13.187667 63.398071
v -0.002928 6.330510 60.121723
v 0.383036 13.348976 54.395390
v -15.682576 -15.885799 21.197844
v -9.903693 -19.721617 31.231731
v -25.622992 -17.519291 39.812302
v -28.586061 -3.879725 21.817274
v -18.912008 -9.669057 15.574472
v -32.256741 -12.618587 35.218052
v 31.225437 1.542830 24.454952
v 37.611206 -5.103442 36.898628
v 26.208836 -6.104374 19.887838
v 31.225437 1.542830 24.454952
v 36.546467 8.645607 37.573841
v 40.200478 0.179275 42.251022
v -0.002928 6.330510 60.121723
v -14.496170 13.187667 63.398071
v -12.112509 3.145502 67.761383
v -14.496170 13.187667 63.398071
v -22.750237 6.150287 67.682739
v -12.112509 3.145502 67.761383
v -17.654980 -0.164186 10.136164
v -18.039904 11.262644 15.902317
v -2.790927 4.364397 1.632008
v -17.654980 -0.164186 10.136164
v -2.790927 4.364397 1.632008
v -4.547245 -6.786731 3.455156
v -21.216053 18.171301 51.511520
v -28.229485 16.516182 37.459953
v -32.568401 12.598629 55.128471
v -21.216053 18.171301 51.511520
v -27.419289 11.225383 62.040470
v -14.496170 13.187667 63.398071
v -33.402077 -13.278490 51.433506
v -24.605963 -11.034577 64.314117
v -37.032291 -5.209189 57.572704
v -40.129734 3.332228 51.886940
v -38.937603 -7.554348 45.338234
v -37.032291 -5.209189 57.572704
v -39.522686 3.903405 40.431400
v -38.937603 -7.554348 45.338234
v -40.129734 3.332228 51.886940
v -40.129734 3.332228 51.886940
v -35.996128 11.840146 44.066555
v -39.522686 3.903405 40.431400
v -18.772049 -3.212688 68.787376
v -27.888723 -2.044044 66.673935
v -24.605963 -11.034577 64.314117
v -12.431671 -9.142817 65.819885
v -24.605963 -11.034577 64.314117
v -13.683616 -14.782846 59.698833
v -4.547245 -6.786731 3.455156
v -2.877537 -13.052108 10.359144
v -15.682576 -15.885799 21.197844
v 3.549940 -7.322858 3.311886
v 15.051727 -7.715435 10.931263
v 8.181353 -14.369490 14.098341
v -17.654980 -0.164186 10.136164
v -28.146107 4.437850 21.416645
v -18.039904 11.262644 15.902317
v -28.229485 16.516182 37.459953
v -18.039904 11.262644 15.902317
v -32.862442 9.140627 31.679790
v -33.402077 -13.278490 51.433506
v -38.937603 -7.554348 45.338234
v -32.256741 -12.618587 35.218052
v -37.032291 -5.209189 57.572704
v -38.937603 -7.554348 45.338234
v -33.402077 -13.278490 51.433506
v -21.497335 -18.034496 52.617340
v -0.468751 -18.953466 43.497173
v -13.683616 -14.782846 59.698833
v -13.683616 -14.782846 59.698833
v -24.605963 -11.034577 64.314117
v -21.497335 -18.034496 52.617340
v -4.547245 -6.786731 3.455156
v -15.682576 -15.885799 21.197844
v -18.912008 -9.669057 15.574472
v -32.256741 -12.618587 35.218052
v -18.912008 -9.669057 15.574472
v -15.682576 -15.885799 21.197844
v 16.645035 -16.970324 56.145172
v 24.123825 -12.866476 61.401897
v 14.454363 -11.879212 64.201752
v 14.164755 1.400677 68.599388
v 12.935194 -6.994718 67.087288
v 23.732216 -6.287457 67.184998
v 34.491066 -7.085855 59.828537
v 33.555565 -12.726187 52.308025
v 39.435028 -6.070395 48.780796
v 34.491066 -7.085855 59.828537
v 24.123825 -12.866476 61.401897
v 33.555565 -12.726187 52.308025
v -33.555832 3.654229 62.260029
v -22.750237 6.150287 67.682739
v -27.419289 11.225383 62.040470
v -22.750237 6.150287 67.682739
v -27.888723 -2.044044 66.673935
v -18.772049 -3.212688 68.787376
v 17.095646 -17.248802 26.333481
v 27.683235 -16.837654 39.957470
v 11.086140 -19.750080 33.749401
v 24.438213 -12.968680 25.389530
v 26.208836 -6.104374 19.887838
v 34.609165 -11.641262 38.586411
v -32.256741 -12.618587 35.218052
v -15.682576 -15.885799 21.197844
v -25.622992 -17.519291 39.812302
v -33.402077 -13.278490 51.433506
v -32.256741 -12.618587 35.218052
v -25.622992 -17.519291 39.812302
v -28.229485 16.516182 37.459953
v -32.862442 9.140627 31.679790
v -35.996128 11.840146 44.066555
v -28.229485 16.516182 37.459953
v -35.996128 11.840146 44.066555
v -32.568401 12.598629 55.128471
v 15.686455 15.321085 59.658379
v 25.264833 16.447521 53.617939
v 19.282001 18.493053 48.688103
v 15.686455 15.321085 59.658379
v 13.858242 9.063100 66.428925
v 25.576990 10.821770 63.763515
v 25.264833 16.447521 53.617939
v 15.686455 15.321085 59.658379
v 25.576990 10.821770 63.763515
v 25.576990 10.821770 63.763515
v 37.729145 9.681540 51.310478
v 25.264833 16.447521 53.617939
v -4.547245 -6.786731 3.455156
v 3.549940 -7.322858 3.311886
v -2.877537 -13.052108 10.359144
v -4.547245 -6.786731 3.455156
v -2.790927 4.364397 1.632008
v 3.549940 -7.322858 3.311886
v 0.023969 -6.434554 59.942474
v -0.601586 -12.931934 54.790939
v 12.935194 -6.994718 67.087288
v 0.023969 -6.434554 59.942474
v -12.431671 -9.142817 65.819885
v -0.601586 -12.931934 54.790939
v 27.683235 -16.837654 39.957470
v 34.609165 -11.641262 38.586411
v 33.555565 -12.726187 52.308025
v 24.438213 -12.968680 25.389530
v 34.609165 -11.641262 38.586411
v 27.683235 -16.837654 39.957470
v -0.550812 18.458006 44.611736
v -14.496170 13.187667 63.398071
v 0.383036 13.348976 54.395390
v -0.550812 18.458006 44.611736
v 0.383036 13.348976 54.395390
v 15.686455 15.321085 59.658379
v -0.317891 -18.422958 21.449669
v 17.095646 -17.248802 26.333481
v 11.086140 -19.750080 33.749401
v -9.903693 -19.721617 31.231731
v 11.086140 -19.750080 33.749401
v -0.468751 -18.953466 43.497173
v 37.611206 -5.103442 36.898628
v 39.435028 -6.070395 48.780796
v 34.609165 -11.641262 38.586411
v 40.200478 0.179275 42.251022
v 38.432030 4.010902 56.321747
v 39.435028 -6.070395 48.780796
v 37.729145 9.681540 51.310478
v 38.432030 4.010902 56.321747
v 40.200478 0.179275 42.251022
v 25.576990 10.821770 63.763515
v 38.432030 4.010902 56.321747
v 37.729145 9.681540 51.310478
v 3.549940 -7.322858 3.311886
v 8.181353 -14.369490 14.098341
v -2.877537 -13.052108 10.359144
v -0.317891 -18.422958 21.449669
v -2.877537 -13.052108 10.359144
v 8.181353 -14.369490 14.098341
v -12.431671 -9.142817 65.819885
v -12.112509 3.145502 67.761383
v -18.772049 -3.212688 68.787376
v -18.772049 -3.212688 68.787376
v -24.605963 -11.034577 64.314117
v -12.431671 -9.142817 65.819885
v -36.909466 -4.003411 34.417801
v -28.586061 -3.879725 21.817274
v -32.256741 -12.618587 35.218052
v -28.146107 4.437850 21.416645
v -28.586061 -3.879725 21.817274
v -36.909466 -4.003411 34.417801
v 14.164755 1.400677 68.599388
v 13.858242 9.063100 66.428925
v -0.002928 6.330510 60.121723
v 27.671083 2.117627 67.336349
v 13.858242 9.063100 66.428925
v 14.164755 1.400677 68.599388
v -0.317891 -18.422958 21.449669
v 11.086140 -19.750080 33.749401
v -9.903693 -19.721617 31.231731
v -15.682576 -15.885799 21.197844
v -0.317891 -18.422958 21.449669
v -9.903693 -19.721617 31.231731
v 24.123825 -12.866476 61.401897
v 34.491066 -7.085855 59.828537
v 23.732216 -6.287457 67.184998
v 23.732216 -6.287457 67.184998
v 14.454363 -11.879212 64.201752
v 24.123825 -12.866476 61.401897
v -27.888723 -2.044044 66.673935
v -22.750237 6.150287 67.682739
v -33.555832 3.654229 62.260029
v -27.888723 -2.044044 66.673935
v -33.555832 3.654229 62.260029
v -37.032291 -5.209189 57.572704
v -32.862442 9.140627 31.679790
v -18.039904 11.262644 15.902317
v -28.146107 4.437850 21.416645
v -32.862442 9.140627 31.679790
v -28.146107 4.437850 21.416645
v -39.522686 3.903405 40.431400
v 23.334185 -17.768118 51.027622
v 16.645035 -16.970324 56.145172
v -0.468751 -18.953466 43.497173
v 23.334185 -17.768118 51.027622
v 24.123825 -12.866476 61.401897
v 16.645035 -16.970324 56.145172
v 37.611206 -5.103442 36.898628
v 40.200478 0.179275 42.251022
v 39.435028 -6.070395 48.780796
v 31.225437 1.542830 24.454952
v 40.200478 0.179275 42.251022
v 37.611206 -5.103442 36.898628
v -21.216053 18.171301 51.511520
v -32.568401 12.598629 55.128471
v -27.419289 11.225383 62.040470
v -33.555832 3.654229 62.260029
v -27.419289 11.225383 62.040470
v -32.568401 12.598629 55.128471
v 8.181353 -14.369490 14.098341
v 24.438213 -12.968680 25.389530
v 17.095646 -17.248802 26.333481
v 17.095646 -17.248802 26.333481
v 24.438213 -12.968680 25.389530
v 27.683235 -16.837654 39.957470
v 15.051727 -7.715435 10.931263
v 26.208836 -6.104374 19.887838
v 24.438213 -12.968680 25.389530
v 15.051727 -7.715435 10.931263
v 15.779199 1.908902 9.045795
v 26.208836 -6.104374 19.887838
v 12.935194 -6.994718 67.087288
v -0.601586 -12.931934 54.790939
v 14.454363 -11.879212 64.201752
v 23.732216 -6.287457 67.184998
v 12.935194 -6.994718 67.087288
v 14.454363 -11.879212 64.201752
vn -0.225050 -0.860872 0.456347
vn -0.225050 -0.860872 0.456347
vn -0.225050 -0.860872 0.456347
vn 0.448223 0.711231 -0.541522
vn 0.448223 0.711231 -0.541522
vn 0.448223 0.711231 -0.541522
vn -0.142536 -0.903333 -0.404564
vn -0.142536 -0.903333 -0.404564
vn -0.142536 -0.903333 -0.404564
vn 0.705221 -0.039872 -0.707865
vn 0.705221 -0.039872 -0.707865
vn 0.705221 -0.039872 -0.707865
vn -0.484369 0.463816 -0.741796
vn -0.484369 0.463816 -0.741796
vn -0.484369 0.463816 -0.741796
vn -0.055263 0.963869 0.260583
vn -0.055263 0.963869 0.260583
vn -0.055263 0.963869 0.260583
vn 0.250019 0.963437 0.096335
vn 0.250019 0.963437 0.096335
vn 0.250019 0.963437 0.096335
vn 0.750880 -0.660416 0.005439
vn 0.750880 -0.660416 0.005439
vn 0.750880 -0.660416 0.005439
vn -0.574517 -0.397567 0.715452
vn -0.574517 -0.397567 0.715452
vn -0.574517 -0.397567 0.715452
vn -0.136534 -0.990627 0.004133
vn -0.136534 -0.990627 0.004133
vn -0.136534 -0.990627 0.004133
vn -0.335158 0.845735 -0.415212
vn -0.335158 0.845735 -0.415212
vn -0.335158 0.845735 -0.415212
vn 0.039042 0.986678 0.157931
vn 0.039042 0.986678 0.157931
vn 0.039042 0.986678 0.157931
vn 0.136924 0.990573 -0.004182
vn 0.136924 0.990573 -0.004182
vn 0.136924 0.990573 -0.004182
vn -0.036779 0.997523 -0.059962
vn -0.036779 0.997523 -0.059962
vn -0.036779 0.997523 -0.059962
vn -0.089907 0.995761 0.019401
vn -0.089907 0.995761 0.019401
vn -0.089907 0.995761 0.019401
vn -0.844334 0.048995 0.533572
vn -0.844334 0.048995 0.533572
vn -0.844334 0.048995 0.533572
vn 0.495239 0.848088 0.188375
vn 0.495239 0.848088 0.188375
vn 0.495239 0.848088 0.188375
vn -0.485251 -0.085659 0.870169
vn -0.485251 -0.085659 0.870169
vn -0.485251 -0.085659 0.870169
vn 0.007627 0.994901 0.100564
vn 0.007627 0.994901 0.100564
vn 0.007627 0.994901 0.100564
vn -0.046536 0.974832 0.218032
vn -0.046536 0.974832 0.218032
vn -0.046536 0.974832 0.218032
vn 0.185845 0.433903 -0.881584
vn 0.185845 0.433903 -0.881584
vn 0.185845 0.433903 -0.881584
vn 0.536199 -0.201129 -0.819779
vn 0.536199 -0.201129 -0.819779
vn 0.536199 -0.201129 -0.819779
vn 0.699827 0.152271 -0.697894
vn 0.699827 0.152271 -0.697894
vn 0.699827 0.152271 -0.697894
vn 0.932955 0.343953 -0.106263
vn 0.932955 0.343953 -0.106263
vn 0.932955 0.343953 -0.106263
vn -0.560505 -0.354186 -0.748590
vn -0.560505 -0.354186 -0.748590
vn -0.560505 -0.354186 -0.748590
vn 0.175007 -0.046411 -0.983473
vn 0.175007 -0.046411 -0.983473
vn 0.175007 -0.046411 -0.983473
vn 0.099857 0.793051 -0.600915
vn 0.099857 0.793051 -0.600915
vn 0.099857 0.793051 -0.600915
vn -0.153073 0.946048 -0.285592
vn -0.153073 0.946048 -0.285592
vn -0.153073 0.946048 -0.285592
vn 0.787863 0.348107 -0.508029
vn 0.787863 0.348107 -0.508029
vn 0.787863 0.348107 -0.508029
vn 0.427252 0.826932 -0.365567
vn 0.427252 0.826932 -0.365567
vn 0.427252 0.826932 -0.365567
vn -0.062340 0.847507 -0.527111
vn -0.062340 0.847507 -0.527111
vn -0.062340 0.847507 -0.527111
vn -0.302349 0.762063 -0.572578
vn -0.302349 0.762063 -0.572578
vn -0.302349 0.762063 -0.572578
vn 0.303831 0.931421 -0.200357
vn 0.303831 0.931421 -0.200357
vn 0.303831 0.931421 -0.200357
vn -0.009248 0.920847 -0.389814
vn -0.009248 0.920847 -0.389814
vn -0.009248 0.920847 -0.389814
vn 0.624218 0.347335 -0.699793
vn 0.624218 0.347335 -0.699793
vn 0.624218 0.347335 -0.699793
vn 0.494697 -0.120778 -0.860632
vn 0.494697 -0.120778 -0.860632
vn 0.494697 -0.120778 -0.860632
vn 0.642752 0.663812 -0.382392
vn 0.642752 0.663812 -0.382392
vn 0.642752 0.663812 -0.382392
vn 0.739181 0.663839 -0.113704
vn 0.739181 0.663839 -0.113704
vn 0.739181 0.663839 -0.113704
vn 0.153792 0.946669 -0.283136
vn 0.153792 0.946669 -0.283136
vn 0.153792 0.946669 -0.283136
vn 0.002073 0.999058 -0.043350
vn 0.002073 0.999058 -0.043350
vn 0.002073 0.999058 -0.043350
vn 0.653080 0.726116 -0.215039
vn 0.653080 0.726116 -0.215039
vn 0.653080 0.726116 -0.215039
vn 0.387404 0.917863 0.086283
vn 0.387404 0.917863 0.086283
vn 0.387404 0.917863 0.086283
vn 0.582926 0.549994 -0.598084
vn 0.582926 0.549994 -0.598084
vn 0.582926 0.549994 -0.598084
vn 0.705763 0.517807 -0.483503
vn 0.705763 0.517807 -0.483503
vn 0.705763 0.517807 -0.483503
vn 0.113665 0.929164 -0.351760
vn 0.113665 0.929164 -0.351760
vn 0.113665 0.929164 -0.351760
vn 0.271469 0.785553 -0.556067
vn 0.271469 0.785553 -0.556067
vn 0.271469 0.785553 -0.556067
vn 0.532530 0.367514 -0.762460
vn 0.532530 0.367514 -0.762460
vn 0.532530 0.367514 -0.762460
vn 0.209321 0.473165 -0.855745
vn 0.209321 0.473165 -0.855745
vn 0.209321 0.473165 -0.855745
vn 0.426673 0.900715 -0.081623
vn 0.426673 0.900715 -0.081623
vn 0.426673 0.900715 -0.081623
vn 0.296028 0.941117 -0.163298
vn 0.296028 0.941117 -0.163298
vn 0.296028 0.941117 -0.163298
vn -0.185184 0.982428 -0.023290
vn -0.185184 0.982428 -0.023290
vn -0.185184 0.982428 -0.023290
vn -0.407765 0.823932 -0.393527
vn -0.407765 0.823932 -0.393527
vn -0.407765 0.823932 -0.393527
vn -0.141500 0.965346 -0.219282
vn -0.141500 0.965346 -0.219282
vn -0.141500 0.965346 -0.219282
vn -0.224390 0.961450 -0.158945
vn -0.224390 0.961450 -0.158945
vn -0.224390 0.961450 -0.158945
vn 0.381300 0.717190 -0.583308
vn 0.381300 0.717190 -0.583308
vn 0.381300 0.717190 -0.583308
vn 0.468415 0.465881 -0.750695
vn 0.468415 0.465881 -0.750695
vn 0.468415 0.465881 -0.750695
vn 0.112443 0.993655 0.002382
vn 0.112443 0.993655 0.002382
vn 0.112443 0.993655 0.002382
vn 0.052686 0.995612 -0.077336
vn 0.052686 0.995612 -0.077336
vn 0.052686 0.995612 -0.077336
vn 0.402549 0.818676 -0.409541
vn 0.402549 0.818676 -0.409541
vn 0.402549 0.818676 -0.409541
vn 0.215686 0.931882 -0.291676
vn 0.215686 0.931882 -0.291676
vn 0.215686 0.931882 -0.291676
vn -0.516784 -0.013109 0.856015
vn -0.516784 -0.013109 0.856015
vn -0.516784 -0.013109 0.856015
vn 0.535555 -0.010729 0.844432
vn 0.535555 -0.010729 0.844432
vn 0.535555 -0.010729 0.844432
vn -0.731068 0.005806 -0.682280
vn -0.731068 0.005806 -0.682280
vn -0.731068 0.005806 -0.682280
vn -0.854749 0.104224 -0.508469
vn -0.854749 0.104224 -0.508469
vn -0.854749 0.104224 -0.508469
vn 0.717871 -0.035225 0.695284
vn 0.717871 -0.035225 0.695284
vn 0.717871 -0.035225 0.695284
vn 0.901297 -0.198392 0.385103
vn 0.901297 -0.198392 0.385103
vn 0.901297 -0.198392 0.385103
vn 0.155975 -0.930107 -0.332524
vn 0.155975 -0.930107 -0.332524
vn 0.155975 -0.930107 -0.332524
vn 0.177526 -0.984031 -0.012966
vn 0.177526 -0.984031 -0.012966
vn 0.177526 -0.984031 -0.012966
vn 0.289264 -0.843271 0.453012
vn 0.289264 -0.843271 0.453012
vn 0.289264 -0.843271 0.453012
vn 0.448496 -0.150837 0.880965
vn 0.448496 -0.150837 0.880965
vn 0.448496 -0.150837 0.880965
vn -0.963021 -0.146117 -0.226364
vn -0.963021 -0.146117 -0.226364
vn -0.963021 -0.146117 -0.226364
vn -0.376893 -0.922411 0.084318
vn -0.376893 -0.922411 0.084318
vn -0.376893 -0.922411 0.084318
vn 0.099345 0.936444 0.336456
vn 0.099345 0.936444 0.336456
vn 0.099345 0.936444 0.336456
vn -0.758244 0.455571 0.466392
vn -0.758244 0.455571 0.466392
vn -0.758244 0.455571 0.466392
vn 0.430945 -0.897483 0.093868
vn 0.430945 -0.897483 0.093868
vn 0.430945 -0.897483 0.093868
vn 0.531104 -0.263393 0.805328
vn 0.531104 -0.263393 0.805328
vn 0.531104 -0.263393 0.805328
vn -0.302215 0.739310 0.601736
vn -0.302215 0.739310 0.601736
vn -0.302215 0.739310 0.601736
vn 0.611197 0.421918 0.669644
vn 0.611197 0.421918 0.669644
vn 0.611197 0.421918 0.669644
vn -0.640629 -0.315747 -0.699928
vn -0.640629 -0.315747 -0.699928
vn -0.640629 -0.315747 -0.699928
vn -0.825049 -0.474131 -0.307398
vn -0.825049 -0.474131 -0.307398
vn -0.825049 -0.474131 -0.307398
vn -0.176619 0.654657 0.735004
vn -0.176619 0.654657 0.735004
vn -0.176619 0.654657 0.735004
vn 0.029209 0.129348 0.991169
vn 0.029209 0.129348 0.991169
vn 0.029209 0.129348 0.991169
vn 0.440015 -0.713710 -0.544981
vn 0.440015 -0.713710 -0.544981
vn 0.440015 -0.713710 -0.544981
vn 0.747569 -0.465559 -0.473703
vn 0.747569 -0.465559 -0.473703
vn 0.747569 -0.465559 -0.473703
vn -0.373965 -0.836242 0.401060
vn -0.373965 -0.836242 0.401060
vn -0.373965 -0.836242 0.401060
vn 0.328956 -0.727058 0.602640
vn 0.328956 -0.727058 0.602640
vn 0.328956 -0.727058 0.602640
vn -0.806266 0.501759 -0.313326
vn -0.806266 0.501759 -0.313326
vn -0.806266 0.501759 -0.313326
vn -0.792233 0.574359 0.206105
vn -0.792233 0.574359 0.206105
vn -0.792233 0.574359 0.206105
vn 0.372415 -0.849748 0.373143
vn 0.372415 -0.849748 0.373143
vn 0.372415 -0.849748 0.373143
vn -0.247940 -0.847990 0.468444
vn -0.247940 -0.847990 0.468444
vn -0.247940 -0.847990 0.468444
vn -0.012369 -0.997330 0.071974
vn -0.012369 -0.997330 0.071974
vn -0.012369 -0.997330 0.071974
vn 0.017321 -0.994652 0.101817
vn 0.017321 -0.994652 0.101817
vn 0.017321 -0.994652 0.101817
vn 0.096237 -0.062987 0.993363
vn 0.096237 -0.062987 0.993363
vn 0.096237 -0.062987 0.993363
vn 0.144492 0.405296 0.902694
vn 0.144492 0.405296 0.902694
vn 0.144492 0.405296 0.902694
vn -0.428591 0.585203 0.688365
vn -0.428591 0.585203 0.688365
vn -0.428591 0.585203 0.688365
vn 0.425128 0.558053 0.712631
vn 0.425128 0.558053 0.712631
vn 0.425128 0.558053 0.712631
vn -0.250395 -0.943621 -0.216522
vn -0.250395 -0.943621 -0.216522
vn -0.250395 -0.943621 -0.216522
vn -0.660337 -0.533343 -0.528678
vn -0.660337 -0.533343 -0.528678
vn -0.660337 -0.533343 -0.528678
vn 0.816805 -0.216449 -0.534770
vn 0.816805 -0.216449 -0.534770
vn 0.816805 -0.216449 -0.534770
vn 0.888172 0.141878 -0.437059
vn 0.888172 0.141878 -0.437059
vn 0.888172 0.141878 -0.437059
vn 0.391972 0.443302 0.806127
vn 0.391972 0.443302 0.806127
vn 0.391972 0.443302 0.806127
vn 0.111451 0.418160 0.901510
vn 0.111451 0.418160 0.901510
vn 0.111451 0.418160 0.901510
vn -0.543592 0.363466 -0.756571
vn -0.543592 0.363466 -0.756571
vn -0.543592 0.363466 -0.756571
vn -0.479912 -0.067426 -0.874722
vn -0.479912 -0.067426 -0.874722
vn -0.479912 -0.067426 -0.874722
vn -0.412778 0.905394 0.099381
vn -0.412778 0.905394 0.099381
vn -0.412778 0.905394 0.099381
vn -0.180463 0.866543 0.465335
vn -0.180463 0.866543 0.465335
vn -0.180463 0.866543 0.465335
vn -0.575523 -0.643178 0.505069
vn -0.575523 -0.643178 0.505069
vn -0.575523 -0.643178 0.505069
vn -0.956665 -0.219713 0.191100
vn -0.956665 -0.219713 0.191100
vn -0.956665 -0.219713 0.191100
vn -0.995579 -0.075034 -0.056499
vn -0.995579 -0.075034 -0.056499
vn -0.995579 -0.075034 -0.056499
vn -0.908789 0.416354 -0.027399
vn -0.908789 0.416354 -0.027399
vn -0.908789 0.416354 -0.027399
vn -0.253166 -0.331038 0.909022
vn -0.253166 -0.331038 0.909022
vn -0.253166 -0.331038 0.909022
vn 0.031376 -0.738240 0.673808
vn 0.031376 -0.738240 0.673808
vn 0.031376 -0.738240 0.673808
vn -0.334421 -0.736728 -0.587703
vn -0.334421 -0.736728 -0.587703
vn -0.334421 -0.736728 -0.587703
vn 0.383805 -0.688936 -0.614867
vn 0.383805 -0.688936 -0.614867
vn 0.383805 -0.688936 -0.614867
vn -0.616371 0.338107 -0.711176
vn -0.616371 0.338107 -0.711176
vn -0.616371 0.338107 -0.711176
vn -0.565979 0.698592 -0.437764
vn -0.565979 0.698592 -0.437764
vn -0.565979 0.698592 -0.437764
vn -0.674174 -0.734494 -0.077509
vn -0.674174 -0.734494 -0.077509
vn -0.674174 -0.734494 -0.077509
vn -0.810306 -0.539179 0.229544
vn -0.810306 -0.539179 0.229544
vn -0.810306 -0.539179 0.229544
vn 0.098953 -0.941213 0.322997
vn 0.098953 -0.941213 0.322997
vn 0.098953 -0.941213 0.322997
vn -0.087976 -0.864882 0.494206
vn -0.087976 -0.864882 0.494206
vn -0.087976 -0.864882 0.494206
vn -0.355941 -0.721803 -0.593554
vn -0.355941 -0.721803 -0.593554
vn -0.355941 -0.721803 -0.593554
vn -0.535296 -0.702415 -0.469119
vn -0.535296 -0.702415 -0.469119
vn -0.535296 -0.702415 -0.469119
vn 0.073213 -0.833980 0.546916
vn 0.073213 -0.833980 0.546916
vn 0.073213 -0.833980 0.546916
vn 0.002731 -0.177645 0.984091
vn 0.002731 -0.177645 0.984091
vn 0.002731 -0.177645 0.984091
vn 0.788180 -0.535404 0.303505
vn 0.788180 -0.535404 0.303505
vn 0.788180 -0.535404 0.303505
vn 0.480538 -0.729230 0.487142
vn 0.480538 -0.729230 0.487142
vn 0.480538 -0.729230 0.487142
vn -0.482883 0.413766 0.771765
vn -0.482883 0.413766 0.771765
vn -0.482883 0.413766 0.771765
vn -0.223344 0.020079 0.974533
vn -0.223344 0.020079 0.974533
vn -0.223344 0.020079 0.974533
vn 0.223152 -0.964040 -0.144325
vn 0.223152 -0.964040 -0.144325
vn 0.223152 -0.964040 -0.144325
vn 0.684925 -0.555019 -0.472051
vn 0.684925 -0.555019 -0.472051
vn 0.684925 -0.555019 -0.472051
vn -0.423020 -0.854700 -0.300903
vn -0.423020 -0.854700 -0.300903
vn -0.423020 -0.854700 -0.300903
vn -0.559354 -0.825698 -0.073111
vn -0.559354 -0.825698 -0.073111
vn -0.559354 -0.825698 -0.073111
vn -0.672011 0.669749 -0.315972
vn -0.672011 0.669749 -0.315972
vn -0.672011 0.669749 -0.315972
vn -0.461611 0.883240 0.082477
vn -0.461611 0.883240 0.082477
vn -0.461611 0.883240 0.082477
vn 0.077583 0.950681 0.300310
vn 0.077583 0.950681 0.300310
vn 0.077583 0.950681 0.300310
vn 0.046612 0.727254 0.684784
vn 0.046612 0.727254 0.684784
vn 0.046612 0.727254 0.684784
vn 0.195831 0.860158 0.470935
vn 0.195831 0.860158 0.470935
vn 0.195831 0.860158 0.470935
vn 0.492561 0.767438 0.410392
vn 0.492561 0.767438 0.410392
vn 0.492561 0.767438 0.410392
vn -0.061148 -0.746455 -0.662620
vn -0.061148 -0.746455 -0.662620
vn -0.061148 -0.746455 -0.662620
vn -0.027864 -0.157014 -0.987203
vn -0.027864 -0.157014 -0.987203
vn -0.027864 -0.157014 -0.987203
vn -0.426325 -0.536433 0.728345
vn -0.426325 -0.536433 0.728345
vn -0.426325 -0.536433 0.728345
vn 0.447104 -0.581759 0.679452
vn 0.447104 -0.581759 0.679452
vn 0.447104 -0.581759 0.679452
vn 0.597838 -0.801427 -0.017462
vn 0.597838 -0.801427 -0.017462
vn 0.597838 -0.801427 -0.017462
vn 0.525295 -0.786087 -0.325780
vn 0.525295 -0.786087 -0.325780
vn 0.525295 -0.786087 -0.325780
vn 0.250322 0.867794 0.429269
vn 0.250322 0.867794 0.429269
vn 0.250322 0.867794 0.429269
vn -0.268858 0.843011 0.465883
vn -0.268858 0.843011 0.465883
vn -0.268858 0.843011 0.465883
vn 0.127599 -0.966525 -0.222594
vn 0.127599 -0.966525 -0.222594
vn 0.127599 -0.966525 -0.222594
vn -0.009745 -0.997502 0.069967
vn -0.009745 -0.997502 0.069967
vn -0.009745 -0.997502 0.069967
vn 0.877866 -0.447281 -0.171145
vn 0.877866 -0.447281 -0.171145
vn 0.877866 -0.447281 -0.171145
vn 0.992400 0.006828 0.122868
vn 0.992400 0.006828 0.122868
vn 0.992400 0.006828 0.122868
vn 0.979933 0.185632 0.072611
vn 0.979933 0.185632 0.072611
vn 0.979933 0.185632 0.072611
vn 0.616766 0.562791 0.550333
vn 0.616766 0.562791 0.550333
vn 0.616766 0.562791 0.550333
vn 0.096866 -0.813694 -0.573166
vn 0.096866 -0.813694 -0.573166
vn 0.096866 -0.813694 -0.573166
vn 0.043322 -0.895213 -0.443527
vn 0.043322 -0.895213 -0.443527
vn 0.043322 -0.895213 -0.443527
vn 0.294735 -0.156591 0.942661
vn 0.294735 -0.156591 0.942661
vn 0.294735 -0.156591 0.942661
vn -0.034596 -0.476575 0.878453
vn -0.034596 -0.476575 0.878453
vn -0.034596 -0.476575 0.878453
vn -0.744004 -0.447867 -0.495856
vn -0.744004 -0.447867 -0.495856
vn -0.744004 -0.447867 -0.495856
vn -0.834345 0.017594 -0.550962
vn -0.834345 0.017594 -0.550962
vn -0.834345 0.017594 -0.550962
vn -0.440163 0.228374 0.868391
vn -0.440163 0.228374 0.868391
vn -0.440163 0.228374 0.868391
vn 0.075073 0.274548 0.958638
vn 0.075073 0.274548 0.958638
vn 0.075073 0.274548 0.958638
vn 0.012942 -0.992795 -0.119120
vn 0.012942 -0.992795 -0.119120
vn 0.012942 -0.992795 -0.119120
vn -0.152239 -0.949255 -0.275207
vn -0.152239 -0.949255 -0.275207
vn -0.152239 -0.949255 -0.275207
vn 0.429229 -0.581755 0.690886
vn 0.429229 -0.581755 0.690886
vn 0.429229 -0.581755 0.690886
vn 0.150164 -0.647670 0.746977
vn 0.150164 -0.647670 0.746977
vn 0.150164 -0.647670 0.746977
vn -0.475288 0.192347 0.858548
vn -0.475288 0.192347 0.858548
vn -0.475288 0.192347 0.858548
vn -0.680262 -0.115928 0.723743
vn -0.680262 -0.115928 0.723743
vn -0.680262 -0.115928 0.723743
vn -0.652955 0.528710 -0.542325
vn -0.652955 0.528710 -0.542325
vn -0.652955 0.528710 -0.542325
vn -0.836287 0.238615 -0.493646
vn -0.836287 0.238615 -0.493646
vn -0.836287 0.238615 -0.493646
vn 0.000335 -0.987999 0.154460
vn 0.000335 -0.987999 0.154460
vn 0.000335 -0.987999 0.154460
vn 0.203944 -0.891060 0.405485
vn 0.203944 -0.891060 0.405485
vn 0.203944 -0.891060 0.405485
vn 0.941772 -0.291134 -0.168247
vn 0.941772 -0.291134 -0.168247
vn 0.941772 -0.291134 -0.168247
vn 0.893275 0.017274 -0.449179
vn 0.893275 0.017274 -0.449179
vn 0.893275 0.017274 -0.449179
vn -0.299930 0.867944 0.395873
vn -0.299930 0.867944 0.395873
vn -0.299930 0.867944 0.395873
vn -0.628593 0.526096 0.572795
vn -0.628593 0.526096 0.572795
vn -0.628593 0.526096 0.572795
vn 0.397078 -0.785775 -0.474221
vn 0.397078 -0.785775 -0.474221
vn 0.397078 -0.785775 -0.474221
vn 0.445760 -0.835542 -0.321198
vn 0.445760 -0.835542 -0.321198
vn 0.445760 -0.835542 -0.321198
vn 0.550116 -0.604056 -0.576619
vn 0.550116 -0.604056 -0.576619
vn 0.550116 -0.604056 -0.576619
vn 0.630970 -0.194809 -0.750951
vn 0.630970 -0.194809 -0.750951
vn 0.630970 -0.194809 -0.750951
vn -0.412649 -0.555024 0.722267
vn -0.412649 -0.555024 0.722267
vn -0.412649 -0.555024 0.722267
vn 0.025108 -0.502670 0.864114
vn 0.025108 -0.502670 0.864114
vn 0.025108 -0.502670 0.864114
f 1//1 2//2 3//3
f 4//4 5//5 6//6
f 7//7 8//8 9//9
f 10//10 11//11 12//12
f 13//13 14//14 15//15
f 16//16 17//17 18//18
f 19//19 20//20 21//21
f 22//22 23//23 24//24
f 25//25 26//26 27//27
f 28//28 29//29 30//30
f 31//31 32//32 33//33
f 34//34 35//35 36//36
f 37//37 38//38 39//39
f 40//40 41//41 42//42
f 43//43 44//44 45//45
f 46//46 47//47 48//48
f 49//49 50//50 51//51
f 52//52 53//53 54//54
f 55//55 56//56 57//57
f 58//58 59//59 60//60
f 61//61 62//62 63//63
f 64//64 65//65 66//66
f 67//67 68//68 69//69
f 70//70 71//71 72//72
f 73//73 74//74 75//75
f 76//76 77//77 78//78
f 79//79 80//80 81//81
f 82//82 83//83 84//84
f 85//85 86//86 87//87
f 88//88 89//89 90//90
f 91//91 92//92 93//93
f 94//94 95//95 96//96
f 97//97 98//98 99//99
f 100//100 101//101 102//102
f 103//103 104//104 105//105
f 106//106 107//107 108//108
f 109//109 110//110 111//111
f 112//112 113//113 114//114
f 115//115 116//116 117//117
f 118//118 119//119 120//120
f 121//121 122//122 123//123
f 124//124 125//125 126//126
f 127//127 128//128 129//129
f 130//130 131//131 132//132
f 133//133 134//134 135//135
f 136//136 137//137 138//138
f 139//139 140//140 141//141
f 142//142 143//143 144//144
f 145//145 146//146 147//147
f 148//148 149//149 150//150
f 151//151 152//152 153//153
f 154//154 155//155 156//156
f 157//157 158//158 159//159
f 160//160 161//161 162//162
f 163//163 164//164 165//165
f 166//166 167//167 168//168
f 169//169 170//170 171//171
f 172//172 173//173 174//174
f 175//175 176//176 177//177
f 178//178 179//179 180//180
f 181//181 182//182 183//183
f 184//184 185//185 186//186
f 187//187 188//188 189//189
f 190//190 191//191 192//192
f 193//193 194//194 195//195
f 196//196 197//197 198//198
f 199//199 200//200 201//201
f 202//202 203//203 204//204
f 205//205 206//206 207//207
f 208//208 209//209 210//210
f 211//211 212//212 213//213
f 214//214 215//215 216//216
f 217//217 218//218 219//219
f 220//220 221//221 222//222
f 223//223 224//224 225//225
f 226//226 227//227 228//228
f 229//229 230//230 231//231
f 232//232 233//233 234//234
f 235//235 236//236 237//237
f 238//238 239//239 240//240
f 241//241 242//242 243//243
f 244//244 245//245 246//246
f 247//247 248//248 249//249
f 250//250 251//251 252//252
f 253//253 254//254 255//255
f 256//256 257//257 258//258
f 259//259 260//260 261//261
f 262//262 263//263 264//264
f 265//265 266//266 267//267
f 268//268 269//269 270//270
f 271//271 272//272 273//273
f 274//274 275//275 276//276
f 277//277 278//278 279//279
f 280//280 281//281 282//282
f 283//283 284//284 285//285
f 286//286 287//287 288//288
f 289//289 290//290 291//291
f 292//292 293//293 294//294
f 295//295 296//296 297//297
f 298//298 299//299 300//300
f 301//301 302//302 303//303
f 304//304 305//305 306//306
f 307//307 308//308 309//309
f 310//310 311//311 312//312
f 313//313 314//314 315//315
f 316//316 317//317 318//318
f 319//319 320//320 321//321
f 322//322 323//323 324//324
f 325//325 326//326 327//327
f 328//328 329//329 330//330
f 331//331 332//332 333//333
f 334//334 335//335 336//336
f 337//337 338//338 339//339
f 340//340 341//341 342//342
f 343//343 344//344 345//345
f 346//346 347//347 348//348
f 349//349 350//350 351//351
f 352//352 353//353 354//354
f 355//355 356//356 357//357
f 358//358 359//359 360//360
f 361//361 362//362 363//363
f 364//364 365//365 366//366
f 367//367 368//368 369//369
f 370//370 371//371 372//372
f 373//373 374//374 375//375
f 376//376 377//377 378//378
f 379//379 380//380 381//381
f 382//382 383//383 384//384
f 385//385 386//386 387//387
f 388//388 389//389 390//390
f 391//391 392//392 393//393
f 394//394 395//395 396//396
f 397//397 398//398 399//399
f 400//400 401//401 402//402
f 403//403 404//404 405//405
f 406//406 407//407 408//408
f 409//409 410//410 411//411
f 412//412 413//413 414//414
f 415//415 416//416 417//417
f 418//418 419//419 420//420
f 421//421 422//422 423//423
f 424//424 425//425 426//426
f 427//427 428//428 429//429
f 430//430 431//431 432//432
f 433//433 434//434 435//435
f 436//436 437//437 438//438
f 439//439 440//440 441//441
f 442//442 443//443 444//444
f 445//445 446//446 447//447
f 448//448 449//449 450//450
f 451//451 452//452 453//453
f 454//454 455//455 456//456
f 457//457 458//458 459//459
f 460//460 461//461 462//462
f 463//463 464//464 465//465
f 466//466 467//467 468//468
f 469//469 470//470 471//471
f 472//472 473//473 474//474
f 475//475 476//476 477//477
f 478//478 479//479 480//480
f 481//481 482//482 483//483
f 484//484 485//485 486//486
f 487//487 488//488 489//489
f 490//490 491//491 492//492
f 493//493 494//494 495//495
f 496//496 497//497 498//498
f 499//499 500//500 501//501
f 502//502 503//503 504//504
f 505//505 506//506 507//507
f 508//508 509//509 510//510
f 511//511 512//512 513//513
f 514//514 515//515 516//516
f 517//517 518//518 519//519
f 520//520 521//521 522//522
f 523//523 524//524 525//525
f 526//526 527//527 528//528
f 529//529 530//530 531//531
f 532//532 533//533 534//534
f 535//535 536//536 537//537
f 538//538 539//539 540//540
