# Converted from GLB: magnet.glb
o Mesh_Cube_Red_0
g Prim_0_0
v 0.535288 0.689299 -0.250000
v 0.535288 0.689299 0.250000
v 0.545775 0.795775 0.250000
v 0.545775 0.795775 -0.250000
v -1.025680 0.591754 -0.250000
v -1.025680 0.591754 0.250000
v -1.045775 0.795775 0.250000
v -1.045775 0.795775 -0.250000
v 0.535288 0.689299 -0.250000
v 0.545775 0.795775 -0.250000
v 1.045775 0.795775 -0.250000
v 1.025680 0.591754 -0.250000
v -0.535288 0.689299 0.250000
v -0.545775 0.795775 0.250000
v -1.045775 0.795775 0.250000
v -1.025680 0.591754 0.250000
v 0.545775 0.795775 0.250000
v 0.535288 0.689299 0.250000
v 1.025680 0.591754 0.250000
v 1.045775 0.795775 0.250000
v 0.504230 0.586916 0.250000
v 0.966170 0.395574 0.250000
v 0.453795 0.492559 0.250000
v 0.869530 0.214773 0.250000
v 0.385921 0.409854 0.250000
v 0.739474 0.056300 0.250000
v 0.303216 0.341980 0.250000
v 0.581001 -0.073755 0.250000
v 0.208859 0.291545 0.250000
v 0.400201 -0.170395 0.250000
v 0.106475 0.260487 0.250000
v 0.204021 -0.229906 0.250000
v 0.000000 0.250000 0.250000
v 0.000000 -0.250000 0.250000
v -0.106475 0.260487 0.250000
v -0.204021 -0.229906 0.250000
v -0.208859 0.291545 0.250000
v -0.400201 -0.170395 0.250000
v -0.303216 0.341980 0.250000
v -0.581001 -0.073755 0.250000
v -0.385921 0.409854 0.250000
v -0.739474 0.056300 0.250000
v -0.453795 0.492559 0.250000
v -0.869530 0.214773 0.250000
v -0.504230 0.586916 0.250000
v -0.966170 0.395574 0.250000
v -0.545775 0.795775 -0.250000
v -0.535288 0.689299 -0.250000
v -1.025680 0.591754 -0.250000
v -1.045775 0.795775 -0.250000
v -0.504230 0.586916 -0.250000
v -0.966170 0.395574 -0.250000
v -0.453795 0.492559 -0.250000
v -0.869530 0.214773 -0.250000
v -0.385921 0.409854 -0.250000
v -0.739474 0.056300 -0.250000
v -0.303216 0.341980 -0.250000
v -0.581001 -0.073755 -0.250000
v -0.208859 0.291545 -0.250000
v -0.400201 -0.170395 -0.250000
v -0.106475 0.260487 -0.250000
v -0.204021 -0.229906 -0.250000
v 0.000000 0.250000 -0.250000
v 0.000000 -0.250000 -0.250000
v 0.106475 0.260487 -0.250000
v 0.204021 -0.229906 -0.250000
v 0.208859 0.291545 -0.250000
v 0.400201 -0.170395 -0.250000
v 0.303216 0.341980 -0.250000
v 0.581001 -0.073755 -0.250000
v 0.385921 0.409854 -0.250000
v 0.739474 0.056300 -0.250000
v 0.453795 0.492559 -0.250000
v 0.869530 0.214773 -0.250000
v 0.504230 0.586916 -0.250000
v 0.966170 0.395574 -0.250000
v 1.045775 0.795775 -0.250000
v 1.045775 0.795775 0.250000
v 1.025680 0.591754 0.250000
v 1.025680 0.591754 -0.250000
v 0.966170 0.395574 0.250000
v 0.966170 0.395574 -0.250000
v 0.869530 0.214773 0.250000
v 0.869530 0.214773 -0.250000
v 0.739474 0.056300 0.250000
v 0.739474 0.056300 -0.250000
v 0.739474 0.056300 -0.250000
v 0.739474 0.056300 0.250000
v 0.581001 -0.073755 0.250000
v 0.581001 -0.073755 -0.250000
v 0.400201 -0.170395 0.250000
v 0.400201 -0.170395 -0.250000
v 0.204021 -0.229906 0.250000
v 0.204021 -0.229906 -0.250000
v 0.000000 -0.250000 0.250000
v 0.000000 -0.250000 -0.250000
v -0.204021 -0.229906 0.250000
v -0.204021 -0.229906 -0.250000
v -0.400201 -0.170395 0.250000
v -0.400201 -0.170395 -0.250000
v -0.581001 -0.073755 0.250000
v -0.581001 -0.073755 -0.250000
v -0.739474 0.056300 0.250000
v -0.739474 0.056300 -0.250000
v -0.739474 0.056300 -0.250000
v -0.739474 0.056300 0.250000
v -0.869530 0.214773 0.250000
v -0.869530 0.214773 -0.250000
v -0.966170 0.395574 0.250000
v -0.966170 0.395574 -0.250000
v -0.545775 0.795775 -0.250000
v -0.545775 0.795775 0.250000
v -0.535288 0.689299 0.250000
v -0.535288 0.689299 -0.250000
v -0.504230 0.586916 0.250000
v -0.504230 0.586916 -0.250000
v -0.453795 0.492559 0.250000
v -0.453795 0.492559 -0.250000
v -0.385921 0.409854 0.250000
v -0.385921 0.409854 -0.250000
v -0.385921 0.409854 -0.250000
v -0.385921 0.409854 0.250000
v -0.303216 0.341980 0.250000
v -0.303216 0.341980 -0.250000
v -0.208859 0.291545 0.250000
v -0.208859 0.291545 -0.250000
v -0.106475 0.260487 0.250000
v -0.106475 0.260487 -0.250000
v 0.000000 0.250000 0.250000
v 0.000000 0.250000 -0.250000
v 0.106475 0.260487 0.250000
v 0.106475 0.260487 -0.250000
v 0.208859 0.291545 0.250000
v 0.208859 0.291545 -0.250000
v 0.303216 0.341980 0.250000
v 0.303216 0.341980 -0.250000
v 0.385921 0.409854 0.250000
v 0.385921 0.409854 -0.250000
v 0.385921 0.409854 -0.250000
v 0.385921 0.409854 0.250000
v 0.453795 0.492559 0.250000
v 0.453795 0.492559 -0.250000
v 0.504230 0.586916 0.250000
v 0.504230 0.586916 -0.250000
v -0.545775 1.197183 0.250000
v -1.045775 1.197183 0.250000
v -0.545775 1.598591 0.250000
v -1.045775 1.598591 0.250000
v -1.045775 1.197183 0.250000
v -1.045775 1.197183 -0.250000
v -1.045775 1.598591 0.250000
v -1.045775 1.598591 -0.250000
v -0.545775 1.197183 -0.250000
v -0.545775 1.197183 0.250000
v -0.545775 1.598591 -0.250000
v -0.545775 1.598591 0.250000
v -1.045775 1.197183 -0.250000
v -0.545775 1.197183 -0.250000
v -1.045775 1.598591 -0.250000
v -0.545775 1.598591 -0.250000
v 0.545775 1.197183 0.250000
v 0.545775 1.197183 -0.250000
v 0.545775 1.598591 0.250000
v 0.545775 1.598591 -0.250000
v 1.045775 1.197183 0.250000
v 0.545775 1.197183 0.250000
v 1.045775 1.598591 0.250000
v 0.545775 1.598591 0.250000
v 0.545775 1.197183 -0.250000
v 1.045775 1.197183 -0.250000
v 0.545775 1.598591 -0.250000
v 1.045775 1.598591 -0.250000
v 1.045775 1.197183 -0.250000
v 1.045775 1.197183 0.250000
v 1.045775 1.598591 -0.250000
v 1.045775 1.598591 0.250000
vn -0.980785 0.195090 0.000000
vn -0.980785 0.195090 0.000000
vn -0.998796 0.049068 0.000000
vn -0.998796 0.049068 0.000000
vn -0.980785 -0.195090 0.000000
vn -0.980785 -0.195090 0.000000
vn -0.998796 -0.049068 0.000000
vn -0.998796 -0.049068 0.000000
vn 0.000000 0.000000 -1.000000
vn 0.000000 0.000000 -1.000000
vn 0.000000 0.000000 -1.000000
vn 0.000000 0.000000 -1.000000
vn 0.000000 0.000000 1.000000
vn 0.000000 0.000000 1.000000
vn 0.000000 0.000000 1.000000
vn 0.000000 0.000000 1.000000
vn 0.000000 0.000000 1.000000
vn 0.000000 0.000000 1.000000
vn 0.000000 0.000000 1.000000
vn 0.000000 0.000000 1.000000
vn 0.000000 0.000000 1.000000
vn 0.000000 0.000000 1.000000
vn 0.000000 0.000000 1.000000
vn 0.000000 0.000000 1.000000
vn 0.000000 0.000000 1.000000
vn 0.000000 0.000000 1.000000
vn 0.000000 0.000000 1.000000
vn 0.000000 0.000000 1.000000
vn 0.000000 0.000000 1.000000
vn 0.000000 0.000000 1.000000
vn 0.000000 0.000000 1.000000
vn 0.000000 0.000000 1.000000
vn 0.000000 0.000000 1.000000
vn 0.000000 0.000000 1.000000
vn 0.000000 0.000000 1.000000
vn 0.000000 0.000000 1.000000
vn 0.000000 0.000000 1.000000
vn 0.000000 0.000000 1.000000
vn 0.000000 0.000000 1.000000
vn 0.000000 0.000000 1.000000
vn 0.000000 0.000000 1.000000
vn 0.000000 0.000000 1.000000
vn 0.000000 0.000000 1.000000
vn 0.000000 0.000000 1.000000
vn 0.000000 0.000000 1.000000
vn 0.000000 0.000000 1.000000
vn 0.000000 0.000000 -1.000000
vn 0.000000 0.000000 -1.000000
vn 0.000000 0.000000 -1.000000
vn 0.000000 0.000000 -1.000000
vn 0.000000 0.000000 -1.000000
vn 0.000000 0.000000 -1.000000
vn 0.000000 0.000000 -1.000000
vn 0.000000 0.000000 -1.000000
vn 0.000000 0.000000 -1.000000
vn 0.000000 0.000000 -1.000000
vn 0.000000 0.000000 -1.000000
vn 0.000000 0.000000 -1.000000
vn 0.000000 0.000000 -1.000000
vn 0.000000 0.000000 -1.000000
vn 0.000000 0.000000 -1.000000
vn 0.000000 0.000000 -1.000000
vn 0.000000 0.000000 -1.000000
vn 0.000000 0.000000 -1.000000
vn 0.000000 0.000000 -1.000000
vn 0.000000 0.000000 -1.000000
vn 0.000000 0.000000 -1.000000
vn 0.000000 0.000000 -1.000000
vn 0.000000 0.000000 -1.000000
vn 0.000000 0.000000 -1.000000
vn 0.000000 0.000000 -1.000000
vn 0.000000 0.000000 -1.000000
vn 0.000000 0.000000 -1.000000
vn 0.000000 0.000000 -1.000000
vn 0.000000 0.000000 -1.000000
vn 0.000000 0.000000 -1.000000
vn 0.998796 -0.049068 0.000000
vn 0.998796 -0.049068 0.000000
vn 0.980785 -0.195090 0.000000
vn 0.980785 -0.195090 0.000000
vn 0.923880 -0.382683 0.000000
vn 0.923880 -0.382683 0.000000
vn 0.831470 -0.555570 0.000000
vn 0.831470 -0.555570 0.000000
vn 0.707107 -0.707107 0.000000
vn 0.707107 -0.707107 0.000000
vn 0.707107 -0.707107 0.000000
vn 0.707107 -0.707107 0.000000
vn 0.555570 -0.831470 0.000000
vn 0.555570 -0.831470 0.000000
vn 0.382683 -0.923880 0.000000
vn 0.382683 -0.923880 0.000000
vn 0.195090 -0.980785 0.000000
vn 0.195090 -0.980785 0.000000
vn 0.000000 -1.000000 0.000000
vn 0.000000 -1.000000 0.000000
vn -0.195090 -0.980785 0.000000
vn -0.195090 -0.980785 0.000000
vn -0.382683 -0.923880 0.000000
vn -0.382683 -0.923880 0.000000
vn -0.555570 -0.831470 0.000000
vn -0.555570 -0.831470 0.000000
vn -0.707107 -0.707107 0.000000
vn -0.707107 -0.707107 0.000000
vn -0.707107 -0.707107 0.000000
vn -0.707107 -0.707107 0.000000
vn -0.831470 -0.555570 0.000000
vn -0.831470 -0.555570 0.000000
vn -0.923880 -0.382683 0.000000
vn -0.923880 -0.382683 0.000000
vn 0.998796 0.049068 0.000000
vn 0.998796 0.049068 0.000000
vn 0.980785 0.195090 0.000000
vn 0.980785 0.195090 0.000000
vn 0.923880 0.382683 0.000000
vn 0.923880 0.382683 0.000000
vn 0.831469 0.555570 0.000000
vn 0.831469 0.555570 0.000000
vn 0.707107 0.707107 0.000000
vn 0.707107 0.707107 0.000000
vn 0.707107 0.707107 0.000000
vn 0.707107 0.707107 0.000000
vn 0.555570 0.831469 0.000000
vn 0.555570 0.831469 0.000000
vn 0.382683 0.923880 0.000000
vn 0.382683 0.923880 0.000000
vn 0.195090 0.980785 0.000000
vn 0.195090 0.980785 0.000000
vn 0.000000 1.000000 0.000000
vn 0.000000 1.000000 0.000000
vn -0.195090 0.980785 0.000000
vn -0.195090 0.980785 0.000000
vn -0.382683 0.923880 0.000000
vn -0.382683 0.923880 0.000000
vn -0.555570 0.831469 0.000000
vn -0.555570 0.831469 0.000000
vn -0.707107 0.707107 0.000000
vn -0.707107 0.707107 0.000000
vn -0.707107 0.707107 0.000000
vn -0.707107 0.707107 0.000000
vn -0.831469 0.555570 0.000000
vn -0.831469 0.555570 0.000000
vn -0.923880 0.382683 0.000000
vn -0.923880 0.382683 0.000000
vn 0.000000 0.000000 1.000000
vn 0.000000 0.000000 1.000000
vn 0.000000 0.000000 1.000000
vn 0.000000 0.000000 1.000000
vn -1.000000 0.000000 0.000000
vn -1.000000 0.000000 0.000000
vn -1.000000 0.000000 0.000000
vn -1.000000 0.000000 0.000000
vn 1.000000 -0.000000 0.000000
vn 1.000000 -0.000000 0.000000
vn 1.000000 -0.000000 0.000000
vn 1.000000 -0.000000 0.000000
vn 0.000000 0.000000 -1.000000
vn 0.000000 0.000000 -1.000000
vn 0.000000 0.000000 -1.000000
vn 0.000000 0.000000 -1.000000
vn -1.000000 -0.000000 0.000000
vn -1.000000 -0.000000 0.000000
vn -1.000000 -0.000000 0.000000
vn -1.000000 -0.000000 0.000000
vn 0.000000 0.000000 1.000000
vn 0.000000 0.000000 1.000000
vn 0.000000 0.000000 1.000000
vn 0.000000 0.000000 1.000000
vn 0.000000 0.000000 -1.000000
vn 0.000000 0.000000 -1.000000
vn 0.000000 0.000000 -1.000000
vn 0.000000 0.000000 -1.000000
vn 1.000000 0.000000 0.000000
vn 1.000000 0.000000 0.000000
vn 1.000000 0.000000 0.000000
vn 1.000000 0.000000 0.000000
vt 0.358586 0.150941
vt 0.239057 0.150941
vt 0.239057 0.176330
vt 0.358586 0.176330
vt 0.239057 0.127681
vt 0.119529 0.127681
vt 0.119529 0.176330
vt 0.239057 0.176330
vt 0.622036 0.776021
vt 0.619529 0.750632
vt 0.500000 0.750632
vt 0.504804 0.799281
vt 0.122036 0.776021
vt 0.119529 0.750632
vt 0.000000 0.750632
vt 0.004804 0.799281
vt 0.380471 0.750632
vt 0.377964 0.776021
vt 0.495196 0.799281
vt 0.500000 0.750632
vt 0.370540 0.800435
vt 0.480970 0.846061
vt 0.358483 0.822935
vt 0.457867 0.889173
vt 0.342257 0.842656
vt 0.426777 0.926962
vt 0.322486 0.858841
vt 0.388893 0.957974
vt 0.299929 0.870867
vt 0.345671 0.981018
vt 0.275454 0.878273
vt 0.298773 0.995208
vt 0.250000 0.880774
vt 0.250000 1.000000
vt 0.224546 0.878273
vt 0.201227 0.995208
vt 0.200071 0.870867
vt 0.154329 0.981018
vt 0.177514 0.858841
vt 0.111107 0.957974
vt 0.157743 0.842656
vt 0.073223 0.926962
vt 0.141517 0.822935
vt 0.042133 0.889173
vt 0.129460 0.800435
vt 0.019030 0.846061
vt 0.880471 0.750632
vt 0.877964 0.776021
vt 0.995196 0.799281
vt 1.000000 0.750632
vt 0.870540 0.800435
vt 0.980970 0.846061
vt 0.858483 0.822935
vt 0.957867 0.889173
vt 0.842257 0.842656
vt 0.926777 0.926962
vt 0.822486 0.858841
vt 0.888893 0.957974
vt 0.799929 0.870867
vt 0.845671 0.981018
vt 0.775454 0.878273
vt 0.798773 0.995208
vt 0.750000 0.880774
vt 0.750000 1.000000
vt 0.724546 0.878273
vt 0.701227 0.995208
vt 0.700071 0.870867
vt 0.654329 0.981018
vt 0.677514 0.858841
vt 0.611107 0.957974
vt 0.657743 0.842656
vt 0.573223 0.926962
vt 0.641517 0.822935
vt 0.542133 0.889173
vt 0.629460 0.800435
vt 0.519030 0.846061
vt 0.000000 0.176330
vt 0.119529 0.176330
vt 0.119529 0.127681
vt 0.000000 0.127681
vt 0.119529 0.080901
vt 0.000000 0.080901
vt 0.119529 0.037788
vt 0.000000 0.037788
vt 0.119529 0.000000
vt 0.000000 0.000000
vt 0.597643 0.112519
vt 0.478115 0.112519
vt 0.478115 0.147086
vt 0.597643 0.147086
vt 0.478115 0.187732
vt 0.597643 0.187732
vt 0.478115 0.232896
vt 0.597643 0.232896
vt 0.478115 0.280841
vt 0.597643 0.280841
vt 0.478115 0.329726
vt 0.597643 0.329726
vt 0.478115 0.377671
vt 0.597643 0.377671
vt 0.478115 0.422835
vt 0.597643 0.422835
vt 0.478115 0.463481
vt 0.597643 0.463481
vt 0.239057 0.000000
vt 0.119529 0.000000
vt 0.119529 0.037788
vt 0.239057 0.037788
vt 0.119529 0.080901
vt 0.239057 0.080901
vt 0.478115 0.371457
vt 0.358586 0.371457
vt 0.358586 0.396846
vt 0.478115 0.396846
vt 0.358586 0.421260
vt 0.478115 0.421260
vt 0.358586 0.443760
vt 0.478115 0.443760
vt 0.358586 0.463481
vt 0.478115 0.463481
vt 0.717172 0.279433
vt 0.597643 0.279433
vt 0.597643 0.299154
vt 0.717172 0.299154
vt 0.597643 0.321654
vt 0.717172 0.321654
vt 0.597643 0.346068
vt 0.717172 0.346068
vt 0.597643 0.371457
vt 0.717172 0.371457
vt 0.597643 0.396846
vt 0.717172 0.396846
vt 0.597643 0.421260
vt 0.717172 0.421260
vt 0.597643 0.443760
vt 0.717172 0.443760
vt 0.597643 0.463481
vt 0.717172 0.463481
vt 0.358586 0.084306
vt 0.239057 0.084306
vt 0.239057 0.104027
vt 0.358586 0.104027
vt 0.239057 0.126527
vt 0.358586 0.126527
vt 0.119529 0.654915
vt 0.000000 0.654915
vt 0.119529 0.559198
vt 0.000000 0.559198
vt 0.119529 0.272047
vt 0.239057 0.272047
vt 0.119529 0.367764
vt 0.239057 0.367764
vt 0.478115 0.275740
vt 0.358586 0.275740
vt 0.478115 0.180023
vt 0.358586 0.180023
vt 1.000000 0.654915
vt 0.880471 0.654915
vt 1.000000 0.559198
vt 0.880471 0.559198
vt 0.239057 0.272047
vt 0.358586 0.272047
vt 0.239057 0.367764
vt 0.358586 0.367764
vt 0.500000 0.654915
vt 0.380471 0.654915
vt 0.500000 0.559198
vt 0.380471 0.559198
vt 0.619529 0.654915
vt 0.500000 0.654915
vt 0.619529 0.559198
vt 0.500000 0.559198
vt 0.000000 0.272047
vt 0.119529 0.272047
vt 0.000000 0.367764
vt 0.119529 0.367764
f 1/1/1 2/2/2 3/3/3
f 1/1/1 3/3/3 4/4/4
f 5/5/5 6/6/6 7/7/7
f 5/5/5 7/7/7 8/8/8
f 9/9/9 10/10/10 11/11/11
f 9/9/9 11/11/11 12/12/12
f 13/13/13 14/14/14 15/15/15
f 13/13/13 15/15/15 16/16/16
f 17/17/17 18/18/18 19/19/19
f 17/17/17 19/19/19 20/20/20
f 18/18/18 21/21/21 22/22/22
f 18/18/18 22/22/22 19/19/19
f 21/21/21 23/23/23 24/24/24
f 21/21/21 24/24/24 22/22/22
f 23/23/23 25/25/25 26/26/26
f 23/23/23 26/26/26 24/24/24
f 25/25/25 27/27/27 28/28/28
f 25/25/25 28/28/28 26/26/26
f 27/27/27 29/29/29 30/30/30
f 27/27/27 30/30/30 28/28/28
f 29/29/29 31/31/31 32/32/32
f 29/29/29 32/32/32 30/30/30
f 31/31/31 33/33/33 34/34/34
f 31/31/31 34/34/34 32/32/32
f 33/33/33 35/35/35 36/36/36
f 33/33/33 36/36/36 34/34/34
f 35/35/35 37/37/37 38/38/38
f 35/35/35 38/38/38 36/36/36
f 37/37/37 39/39/39 40/40/40
f 37/37/37 40/40/40 38/38/38
f 39/39/39 41/41/41 42/42/42
f 39/39/39 42/42/42 40/40/40
f 41/41/41 43/43/43 44/44/44
f 41/41/41 44/44/44 42/42/42
f 43/43/43 45/45/45 46/46/46
f 43/43/43 46/46/46 44/44/44
f 45/45/45 13/13/13 16/16/16
f 45/45/45 16/16/16 46/46/46
f 47/47/47 48/48/48 49/49/49
f 47/47/47 49/49/49 50/50/50
f 48/48/48 51/51/51 52/52/52
f 48/48/48 52/52/52 49/49/49
f 51/51/51 53/53/53 54/54/54
f 51/51/51 54/54/54 52/52/52
f 53/53/53 55/55/55 56/56/56
f 53/53/53 56/56/56 54/54/54
f 55/55/55 57/57/57 58/58/58
f 55/55/55 58/58/58 56/56/56
f 57/57/57 59/59/59 60/60/60
f 57/57/57 60/60/60 58/58/58
f 59/59/59 61/61/61 62/62/62
f 59/59/59 62/62/62 60/60/60
f 61/61/61 63/63/63 64/64/64
f 61/61/61 64/64/64 62/62/62
f 63/63/63 65/65/65 66/66/66
f 63/63/63 66/66/66 64/64/64
f 65/65/65 67/67/67 68/68/68
f 65/65/65 68/68/68 66/66/66
f 67/67/67 69/69/69 70/70/70
f 67/67/67 70/70/70 68/68/68
f 69/69/69 71/71/71 72/72/72
f 69/69/69 72/72/72 70/70/70
f 71/71/71 73/73/73 74/74/74
f 71/71/71 74/74/74 72/72/72
f 73/73/73 75/75/75 76/76/76
f 73/73/73 76/76/76 74/74/74
f 75/75/75 9/9/9 12/12/12
f 75/75/75 12/12/12 76/76/76
f 77/77/77 78/78/78 79/79/79
f 77/77/77 79/79/79 80/80/80
f 80/80/80 79/79/79 81/81/81
f 80/80/80 81/81/81 82/82/82
f 82/82/82 81/81/81 83/83/83
f 82/82/82 83/83/83 84/84/84
f 84/84/84 83/83/83 85/85/85
f 84/84/84 85/85/85 86/86/86
f 87/87/87 88/88/88 89/89/89
f 87/87/87 89/89/89 90/90/90
f 90/90/90 89/89/89 91/91/91
f 90/90/90 91/91/91 92/92/92
f 92/92/92 91/91/91 93/93/93
f 92/92/92 93/93/93 94/94/94
f 94/94/94 93/93/93 95/95/95
f 94/94/94 95/95/95 96/96/96
f 96/96/96 95/95/95 97/97/97
f 96/96/96 97/97/97 98/98/98
f 98/98/98 97/97/97 99/99/99
f 98/98/98 99/99/99 100/100/100
f 100/100/100 99/99/99 101/101/101
f 100/100/100 101/101/101 102/102/102
f 102/102/102 101/101/101 103/103/103
f 102/102/102 103/103/103 104/104/104
f 105/105/105 106/106/106 107/107/107
f 105/105/105 107/107/107 108/108/108
f 108/108/108 107/107/107 109/109/109
f 108/108/108 109/109/109 110/110/110
f 110/110/110 109/109/109 6/6/6
f 110/110/110 6/6/6 5/5/5
f 111/111/111 112/112/112 113/113/113
f 111/111/111 113/113/113 114/114/114
f 114/114/114 113/113/113 115/115/115
f 114/114/114 115/115/115 116/116/116
f 116/116/116 115/115/115 117/117/117
f 116/116/116 117/117/117 118/118/118
f 118/118/118 117/117/117 119/119/119
f 118/118/118 119/119/119 120/120/120
f 121/121/121 122/122/122 123/123/123
f 121/121/121 123/123/123 124/124/124
f 124/124/124 123/123/123 125/125/125
f 124/124/124 125/125/125 126/126/126
f 126/126/126 125/125/125 127/127/127
f 126/126/126 127/127/127 128/128/128
f 128/128/128 127/127/127 129/129/129
f 128/128/128 129/129/129 130/130/130
f 130/130/130 129/129/129 131/131/131
f 130/130/130 131/131/131 132/132/132
f 132/132/132 131/131/131 133/133/133
f 132/132/132 133/133/133 134/134/134
f 134/134/134 133/133/133 135/135/135
f 134/134/134 135/135/135 136/136/136
f 136/136/136 135/135/135 137/137/137
f 136/136/136 137/137/137 138/138/138
f 139/139/139 140/140/140 141/141/141
f 139/139/139 141/141/141 142/142/142
f 142/142/142 141/141/141 143/143/143
f 142/142/142 143/143/143 144/144/144
f 144/144/144 143/143/143 2/2/2
f 144/144/144 2/2/2 1/1/1
f 15/15/15 14/14/14 145/145/145
f 15/15/15 145/145/145 146/146/146
f 146/146/146 145/145/145 147/147/147
f 146/146/146 147/147/147 148/148/148
f 8/8/8 7/7/7 149/149/149
f 8/8/8 149/149/149 150/150/150
f 150/150/150 149/149/149 151/151/151
f 150/150/150 151/151/151 152/152/152
f 112/112/112 111/111/111 153/153/153
f 112/112/112 153/153/153 154/154/154
f 154/154/154 153/153/153 155/155/155
f 154/154/154 155/155/155 156/156/156
f 47/47/47 50/50/50 157/157/157
f 47/47/47 157/157/157 158/158/158
f 158/158/158 157/157/157 159/159/159
f 158/158/158 159/159/159 160/160/160
f 4/4/4 3/3/3 161/161/161
f 4/4/4 161/161/161 162/162/162
f 162/162/162 161/161/161 163/163/163
f 162/162/162 163/163/163 164/164/164
f 17/17/17 20/20/20 165/165/165
f 17/17/17 165/165/165 166/166/166
f 166/166/166 165/165/165 167/167/167
f 166/166/166 167/167/167 168/168/168
f 11/11/11 10/10/10 169/169/169
f 11/11/11 169/169/169 170/170/170
f 170/170/170 169/169/169 171/171/171
f 170/170/170 171/171/171 172/172/172
f 78/78/78 77/77/77 173/173/173
f 78/78/78 173/173/173 174/174/174
f 174/174/174 173/173/173 175/175/175
f 174/174/174 175/175/175 176/176/176
o Mesh_Cube.001_White_0
g Prim_1_0
v 1.045775 1.598591 0.250000
v 1.045775 1.598591 -0.250000
v 1.045775 2.000000 -0.250000
v 1.045775 2.000000 0.250000
v -0.545775 1.598591 -0.250000
v -1.045775 1.598591 -0.250000
v -1.045775 2.000000 -0.250000
v -0.545775 2.000000 -0.250000
v -1.045775 2.000000 -0.250000
v -1.045775 2.000000 0.250000
v -0.545775 2.000000 0.250000
v -0.545775 2.000000 -0.250000
v 0.545775 2.000000 -0.250000
v 0.545775 2.000000 0.250000
v 1.045775 2.000000 0.250000
v 1.045775 2.000000 -0.250000
v 1.045775 1.598591 -0.250000
v 0.545775 1.598591 -0.250000
v 0.545775 2.000000 -0.250000
v 1.045775 2.000000 -0.250000
v -0.545775 1.598591 0.250000
v -0.545775 1.598591 -0.250000
v -0.545775 2.000000 -0.250000
v -0.545775 2.000000 0.250000
v -1.045775 1.598591 -0.250000
v -1.045775 1.598591 0.250000
v -1.045775 2.000000 0.250000
v -1.045775 2.000000 -0.250000
v 0.545775 1.598591 0.250000
v 1.045775 1.598591 0.250000
v 1.045775 2.000000 0.250000
v 0.545775 2.000000 0.250000
v 0.545775 1.598591 -0.250000
v 0.545775 1.598591 0.250000
v 0.545775 2.000000 0.250000
v 0.545775 2.000000 -0.250000
v -1.045775 1.598591 0.250000
v -0.545775 1.598591 0.250000
v -0.545775 2.000000 0.250000
v -1.045775 2.000000 0.250000
vn 1.000000 0.000000 0.000000
vn 1.000000 0.000000 0.000000
vn 1.000000 0.000000 0.000000
vn 1.000000 0.000000 0.000000
vn 0.000000 0.000000 -1.000000
vn 0.000000 0.000000 -1.000000
vn 0.000000 0.000000 -1.000000
vn 0.000000 0.000000 -1.000000
vn 0.000000 1.000000 0.000000
vn 0.000000 1.000000 0.000000
vn 0.000000 1.000000 0.000000
vn 0.000000 1.000000 0.000000
vn 0.000000 1.000000 0.000000
vn 0.000000 1.000000 0.000000
vn 0.000000 1.000000 0.000000
vn 0.000000 1.000000 0.000000
vn 0.000000 0.000000 -1.000000
vn 0.000000 0.000000 -1.000000
vn 0.000000 0.000000 -1.000000
vn 0.000000 0.000000 -1.000000
vn 1.000000 -0.000000 0.000000
vn 1.000000 -0.000000 0.000000
vn 1.000000 -0.000000 0.000000
vn 1.000000 -0.000000 0.000000
vn -1.000000 0.000000 0.000000
vn -1.000000 0.000000 0.000000
vn -1.000000 0.000000 0.000000
vn -1.000000 0.000000 0.000000
vn 0.000000 0.000000 1.000000
vn 0.000000 0.000000 1.000000
vn 0.000000 0.000000 1.000000
vn 0.000000 0.000000 1.000000
vn -1.000000 0.000000 0.000000
vn -1.000000 0.000000 0.000000
vn -1.000000 0.000000 0.000000
vn -1.000000 0.000000 0.000000
vn 0.000000 0.000000 1.000000
vn 0.000000 0.000000 1.000000
vn 0.000000 0.000000 1.000000
vn 0.000000 0.000000 1.000000
vt 0.119529 0.367764
vt 0.000000 0.367764
vt 0.000000 0.463481
vt 0.119529 0.463481
vt 0.880471 0.559198
vt 1.000000 0.559198
vt 1.000000 0.463481
vt 0.880471 0.463481
vt 0.717172 0.344254
vt 0.717172 0.463481
vt 0.836701 0.463481
vt 0.836701 0.344254
vt 0.717172 0.225028
vt 0.717172 0.344254
vt 0.836701 0.344254
vt 0.836701 0.225028
vt 0.500000 0.559198
vt 0.619529 0.559198
vt 0.619529 0.463481
vt 0.500000 0.463481
vt 0.358586 0.180023
vt 0.478115 0.180023
vt 0.478115 0.084306
vt 0.358586 0.084306
vt 0.239057 0.367764
vt 0.119529 0.367764
vt 0.119529 0.463481
vt 0.239057 0.463481
vt 0.380471 0.559198
vt 0.500000 0.559198
vt 0.500000 0.463481
vt 0.380471 0.463481
vt 0.358586 0.367764
vt 0.239057 0.367764
vt 0.239057 0.463481
vt 0.358586 0.463481
vt 0.000000 0.559198
vt 0.119529 0.559198
vt 0.119529 0.463481
vt 0.000000 0.463481
f 177/177/177 178/178/178 179/179/179
f 177/177/177 179/179/179 180/180/180
f 181/181/181 182/182/182 183/183/183
f 181/181/181 183/183/183 184/184/184
f 185/185/185 186/186/186 187/187/187
f 185/185/185 187/187/187 188/188/188
f 189/189/189 190/190/190 191/191/191
f 189/189/189 191/191/191 192/192/192
f 193/193/193 194/194/194 195/195/195
f 193/193/193 195/195/195 196/196/196
f 197/197/197 198/198/198 199/199/199
f 197/197/197 199/199/199 200/200/200
f 201/201/201 202/202/202 203/203/203
f 201/201/201 203/203/203 204/204/204
f 205/205/205 206/206/206 207/207/207
f 205/205/205 207/207/207 208/208/208
f 209/209/209 210/210/210 211/211/211
f 209/209/209 211/211/211 212/212/212
f 213/213/213 214/214/214 215/215/215
f 213/213/213 215/215/215 216/216/216
