# Converted from GLB: stylized_gravestone.glb
o Mesh_Object_0
g Prim_0_0
v -1.132254 0.003053 0.601813
v -1.132254 0.003053 0.601813
v -1.132254 0.003053 0.601813
v -0.893579 0.340704 0.363138
v -0.893579 0.340704 0.363138
v -0.893579 0.340704 0.363138
v -1.132254 0.003053 -0.601813
v -1.132254 0.003053 -0.601813
v -1.132254 0.003053 -0.601813
v -0.893579 0.340704 -0.363138
v -0.893579 0.340704 -0.363138
v -0.893579 0.340704 -0.363138
v 1.132254 0.003053 0.601813
v 1.132254 0.003053 0.601813
v 1.132254 0.003053 0.601813
v 0.893579 0.340704 0.363138
v 0.893579 0.340704 0.363138
v 0.893579 0.340704 0.363138
v 0.893579 0.340704 0.363138
v 1.132254 0.003053 -0.601813
v 1.132254 0.003053 -0.601813
v 1.132254 0.003053 -0.601813
v 0.893579 0.340704 -0.363138
v 0.893579 0.340704 -0.363138
v 0.893579 0.340704 -0.363138
v 0.893579 0.340704 -0.363138
v -0.893579 1.097024 0.363138
v -0.893579 1.097024 0.363138
v -0.893579 1.097024 0.363138
v -0.893579 1.097024 -0.363138
v -0.893579 1.097024 -0.363138
v -0.893579 1.097024 -0.363138
v 0.893579 1.097024 -0.363138
v 0.893579 1.097024 -0.363138
v 0.893579 1.097024 -0.363138
v 0.893579 1.097024 0.363138
v 0.893579 1.097024 0.363138
v 0.893579 1.097024 0.363138
v 0.000000 0.003053 -0.601813
v 0.000000 0.003053 -0.601813
v 0.000000 0.003053 -0.601813
v 0.000000 0.340704 -0.601813
v 0.000000 0.340704 -0.601813
v 0.000000 0.340704 -0.601813
v 0.000000 0.340704 -0.601813
v 0.000000 0.003053 0.601813
v 0.000000 0.003053 0.601813
v 0.000000 0.340704 0.601813
v 0.000000 0.340704 0.601813
v 0.000000 0.340704 -0.363138
v 0.000000 0.340704 -0.363138
v 0.000000 0.340704 -0.363138
v 0.000000 0.340704 0.363138
v 0.000000 0.340704 0.363138
v 0.000000 1.097024 -0.363138
v 0.000000 1.097024 0.363138
v 0.000000 2.105330 -0.363138
v 0.000000 2.105330 -0.363138
v 0.000000 2.105330 -0.363138
v 0.000000 2.105330 0.363138
v 0.000000 2.105330 0.363138
v 0.000000 2.105330 0.363138
v 0.789462 1.833355 0.363138
v 0.789462 1.833355 0.363138
v 0.789462 1.833355 0.363138
v 0.922116 1.636549 0.363138
v 0.922116 1.636549 0.363138
v 0.922116 1.636549 0.363138
v 0.929966 1.784950 0.214529
v 0.929966 1.784950 0.214529
v 0.929966 1.784950 0.214529
v -1.052556 0.340704 -0.522115
v -1.052556 0.340704 -0.522115
v -1.019544 0.340704 -0.601813
v -1.019544 0.340704 -0.601813
v -1.019544 0.340704 -0.601813
v -1.132254 0.227993 -0.601813
v -1.132254 0.227993 -0.601813
v -1.132254 0.227993 -0.601813
v -1.132254 0.340704 -0.489103
v -1.132254 0.340704 -0.489103
v -1.132254 0.340704 -0.489103
v 1.061953 0.332324 -0.531511
v 1.061953 0.332324 -0.531511
v 1.061953 0.332324 -0.531511
v 1.117949 0.332324 -0.508317
v 1.117949 0.332324 -0.508317
v 1.117949 0.332324 -0.508317
v 1.117949 0.253133 -0.587508
v 1.117949 0.253133 -0.587508
v 1.117949 0.253133 -0.587508
v 1.038758 0.332324 -0.587508
v 1.038758 0.332324 -0.587508
v 1.038758 0.332324 -0.587508
v 1.052556 0.340704 0.522115
v 1.052556 0.340704 0.522115
v 1.052556 0.340704 0.522115
v 1.019544 0.340704 0.601813
v 1.019544 0.340704 0.601813
v 1.019544 0.340704 0.601813
v 1.132254 0.227993 0.601813
v 1.132254 0.227993 0.601813
v 1.132254 0.227993 0.601813
v 1.132254 0.340704 0.489103
v 1.132254 0.340704 0.489103
v 1.132254 0.340704 0.489103
v -1.132254 0.288445 0.601813
v -1.132254 0.288445 0.601813
v -1.132254 0.288445 0.601813
v -1.079996 0.340704 0.601813
v -1.079996 0.340704 0.601813
v -1.079996 0.340704 0.601813
v -1.095302 0.340704 0.564861
v -1.095302 0.340704 0.564861
v -1.132254 0.340704 0.549554
v -1.132254 0.340704 0.549554
v -1.132254 0.340704 0.549554
v -0.925223 1.695287 0.363138
v -0.925223 1.695287 0.363138
v -0.925223 1.695287 0.363138
v -0.845074 1.814196 0.363138
v -0.845074 1.814196 0.363138
v -0.845074 1.814196 0.363138
v -0.929966 1.784950 0.273349
v -0.929966 1.784950 0.273349
v -0.929966 1.784950 0.273349
v 0.929966 1.784950 -0.273349
v 0.929966 1.784950 -0.273349
v 0.929966 1.784950 -0.273349
v 0.925223 1.695287 -0.363138
v 0.925223 1.695287 -0.363138
v 0.925223 1.695287 -0.363138
v 0.845074 1.814196 -0.363138
v 0.845074 1.814196 -0.363138
v 0.845074 1.814196 -0.363138
v -0.929965 1.784950 -0.252455
v -0.929965 1.784950 -0.252455
v -0.929965 1.784950 -0.252455
v -0.850754 1.812239 -0.363138
v -0.850754 1.812239 -0.363138
v -0.850754 1.812239 -0.363138
v -0.925540 1.701286 -0.363138
v -0.925540 1.701286 -0.363138
v -0.925540 1.701286 -0.363138
vn 0.000000 0.000000 1.000000
vn 0.000000 -1.000000 0.000000
vn -1.000000 0.000000 0.000000
vn 0.000000 0.000000 1.000000
vn 0.000000 1.000000 0.000000
vn -1.000000 0.000000 0.000000
vn 0.000000 0.000000 -1.000000
vn 0.000000 -1.000000 0.000000
vn -1.000000 0.000000 0.000000
vn 0.000000 0.000000 -1.000000
vn 0.000000 1.000000 0.000000
vn -1.000000 0.000000 0.000000
vn 0.000000 0.000000 1.000000
vn 0.000000 -1.000000 0.000000
vn 0.999739 0.021501 -0.007700
vn 0.000000 0.000000 1.000000
vn 0.000000 1.000000 0.000000
vn 0.017001 0.999839 -0.005700
vn 1.000000 0.000000 0.000000
vn 0.000000 -1.000000 0.000000
vn 0.008000 0.023300 -0.999697
vn 0.999739 0.021501 -0.007700
vn 0.000000 0.000000 -1.000000
vn 0.005300 0.999848 -0.016601
vn 0.017001 0.999839 -0.005700
vn 1.000000 0.000000 0.000000
vn 0.000000 0.000000 1.000000
vn -0.998605 -0.052800 0.000000
vn -1.000000 0.000000 0.000000
vn 0.000000 0.000000 -1.000000
vn -0.998605 -0.052800 0.000000
vn -1.000000 0.000000 0.000000
vn 0.000000 0.000000 -1.000000
vn 0.998605 -0.052800 0.000000
vn 1.000000 0.000000 0.000000
vn 0.000000 0.000000 1.000000
vn 0.998605 -0.052800 0.000000
vn 1.000000 0.000000 0.000000
vn 0.000000 0.000000 -1.000000
vn 0.000000 -1.000000 0.000000
vn 0.008000 0.023300 -0.999697
vn 0.000000 0.000000 -1.000000
vn 0.000000 1.000000 0.000000
vn 0.005300 0.999848 -0.016601
vn 0.008000 0.023300 -0.999697
vn 0.000000 0.000000 1.000000
vn 0.000000 -1.000000 0.000000
vn 0.000000 0.000000 1.000000
vn 0.000000 1.000000 0.000000
vn 0.000000 0.000000 -1.000000
vn 0.000000 1.000000 0.000000
vn 0.005300 0.999848 -0.016601
vn 0.000000 0.000000 1.000000
vn 0.000000 1.000000 0.000000
vn 0.000000 0.000000 -1.000000
vn 0.000000 0.000000 1.000000
vn 0.000000 0.000000 -1.000000
vn 0.325692 0.945476 0.000000
vn -0.325692 0.945476 0.000000
vn 0.000000 0.000000 1.000000
vn 0.325692 0.945476 0.000000
vn -0.325692 0.945476 0.000000
vn 0.000000 0.000000 1.000000
vn 0.325692 0.945476 0.000000
vn 0.710414 0.478910 0.515710
vn 0.000000 0.000000 1.000000
vn 0.710414 0.478910 0.515710
vn 0.998605 -0.052800 0.000000
vn 0.325692 0.945476 0.000000
vn 0.710414 0.478910 0.515710
vn 0.998605 -0.052800 0.000000
vn 0.000000 1.000000 0.000000
vn -0.500002 0.707103 -0.500002
vn 0.000000 0.000000 -1.000000
vn 0.000000 1.000000 0.000000
vn -0.500002 0.707103 -0.500002
vn 0.000000 0.000000 -1.000000
vn -0.500002 0.707103 -0.500002
vn -1.000000 0.000000 0.000000
vn 0.000000 1.000000 0.000000
vn -0.500002 0.707103 -0.500002
vn -1.000000 0.000000 0.000000
vn 0.005300 0.999848 -0.016601
vn 0.017001 0.999839 -0.005700
vn 0.500002 0.707103 -0.500002
vn 0.017001 0.999839 -0.005700
vn 0.500002 0.707103 -0.500002
vn 0.999739 0.021501 -0.007700
vn 0.008000 0.023300 -0.999697
vn 0.500002 0.707103 -0.500002
vn 0.999739 0.021501 -0.007700
vn 0.005300 0.999848 -0.016601
vn 0.008000 0.023300 -0.999697
vn 0.500002 0.707103 -0.500002
vn 0.000000 1.000000 0.000000
vn 0.017001 0.999839 -0.005700
vn 0.500002 0.707103 0.500002
vn 0.000000 0.000000 1.000000
vn 0.000000 1.000000 0.000000
vn 0.500002 0.707103 0.500002
vn 0.000000 0.000000 1.000000
vn 0.500002 0.707103 0.500002
vn 0.999739 0.021501 -0.007700
vn 0.017001 0.999839 -0.005700
vn 0.500002 0.707103 0.500002
vn 0.999739 0.021501 -0.007700
vn 0.000000 0.000000 1.000000
vn -0.500002 0.707103 0.500002
vn -1.000000 0.000000 0.000000
vn 0.000000 0.000000 1.000000
vn 0.000000 1.000000 0.000000
vn -0.500002 0.707103 0.500002
vn 0.000000 1.000000 0.000000
vn -0.500002 0.707103 0.500002
vn 0.000000 1.000000 0.000000
vn -0.500002 0.707103 0.500002
vn -1.000000 0.000000 0.000000
vn 0.000000 0.000000 1.000000
vn -0.710414 0.478910 0.515710
vn -0.998605 -0.052800 0.000000
vn 0.000000 0.000000 1.000000
vn -0.325692 0.945476 0.000000
vn -0.710414 0.478910 0.515710
vn -0.325692 0.945476 0.000000
vn -0.710414 0.478910 0.515710
vn -0.998605 -0.052800 0.000000
vn 0.325692 0.945476 0.000000
vn 0.710414 0.478910 -0.515710
vn 0.998605 -0.052800 0.000000
vn 0.000000 0.000000 -1.000000
vn 0.710414 0.478910 -0.515710
vn 0.998605 -0.052800 0.000000
vn 0.000000 0.000000 -1.000000
vn 0.325692 0.945476 0.000000
vn 0.710414 0.478910 -0.515710
vn -0.325692 0.945476 0.000000
vn -0.754605 0.508603 -0.414602
vn -0.998605 -0.052800 0.000000
vn 0.000000 0.000000 -1.000000
vn -0.325692 0.945476 0.000000
vn -0.754605 0.508603 -0.414602
vn 0.000000 0.000000 -1.000000
vn -0.754605 0.508603 -0.414602
vn -0.998605 -0.052800 0.000000
vt 0.320929 0.378047
vt 0.012159 0.378047
vt 0.932834 0.234296
vt 0.362147 0.347257
vt 0.540293 0.421465
vt 0.767169 0.649157
vt 0.925526 0.377415
vt 0.234296 0.378047
vt 0.932834 0.012159
vt 0.012159 0.018059
vt 0.406255 0.421464
vt 0.901208 0.649157
vt 0.320929 0.795975
vt 0.012159 0.795975
vt 0.767169 0.895611
vt 0.362147 0.017426
vt 0.540293 0.751294
vt 0.540293 0.751294
vt 0.846176 0.287421
vt 0.234296 0.795975
vt 0.925526 0.795344
vt 0.767169 0.673475
vt 0.012159 0.347890
vt 0.406255 0.751293
vt 0.406255 0.751293
vt 0.712138 0.287406
vt 0.501731 0.347257
vt 0.767169 0.509595
vt 0.767169 0.509595
vt 0.151742 0.018058
vt 0.901208 0.509595
vt 0.901208 0.509595
vt 0.151742 0.347889
vt 0.712150 0.147830
vt 0.712150 0.147830
vt 0.501731 0.017426
vt 0.846188 0.147845
vt 0.846188 0.147845
vt 0.925526 0.586379
vt 0.234296 0.587011
vt 0.925526 0.586379
vt 0.987841 0.586379
vt 0.362206 0.586378
vt 0.362206 0.586378
vt 0.987841 0.586379
vt 0.320929 0.587011
vt 0.012159 0.587011
vt 0.258614 0.587011
vt 0.584342 0.586380
vt 0.012159 0.182974
vt 0.406255 0.586379
vt 0.406255 0.586379
vt 0.362147 0.182341
vt 0.540293 0.586380
vt 0.151742 0.182974
vt 0.501731 0.182341
vt 0.337829 0.182973
vt 0.608813 0.548877
vt 0.608813 0.548877
vt 0.687820 0.182341
vt 0.742851 0.548878
vt 0.742851 0.548878
vt 0.637625 0.036641
vt 0.742708 0.694720
vt 0.846150 0.012159
vt 0.601303 0.012159
vt 0.846210 0.048223
vt 0.846210 0.048223
vt 0.715256 0.720676
vt 0.818789 0.020818
vt 0.818789 0.020818
vt 0.376915 0.392124
vt 0.376915 0.392124
vt 0.987841 0.398216
vt 0.362206 0.398216
vt 0.362206 0.398216
vt 0.967040 0.377415
vt 0.362147 0.377474
vt 0.891326 0.012159
vt 0.383008 0.377415
vt 0.383008 0.377415
vt 0.870528 0.032960
vt 0.375176 0.782372
vt 0.375176 0.782372
vt 0.375176 0.782372
vt 0.379457 0.792706
vt 0.379457 0.792706
vt 0.827907 0.690722
vt 0.971689 0.792707
vt 0.364801 0.792748
vt 0.813293 0.676107
vt 0.364842 0.778091
vt 0.986305 0.778091
vt 0.364842 0.778091
vt 0.569633 0.780635
vt 0.569633 0.780635
vt 0.569633 0.780635
vt 0.258614 0.775174
vt 0.584342 0.774542
vt 0.584342 0.774542
vt 0.279415 0.795975
vt 0.584283 0.795403
vt 0.808681 0.895610
vt 0.563541 0.795343
vt 0.563541 0.795343
vt 0.829481 0.874808
vt 0.268258 0.378047
vt 0.584315 0.377444
vt 0.880171 0.234296
vt 0.258614 0.387691
vt 0.584342 0.387061
vt 0.584342 0.387061
vt 0.577522 0.384236
vt 0.577522 0.384236
vt 0.574697 0.377416
vt 0.574697 0.377416
vt 0.870528 0.224651
vt 0.612144 0.353097
vt 0.767169 0.399096
vt 0.767169 0.399096
vt 0.634089 0.338305
vt 0.742699 0.393068
vt 0.767169 0.377415
vt 0.726113 0.377416
vt 0.783740 0.382536
vt 0.783740 0.382536
vt 0.625216 0.720675
vt 0.728749 0.020808
vt 0.728749 0.020808
vt 0.262154 0.353728
vt 0.712174 0.037363
vt 0.712174 0.037363
vt 0.284099 0.338936
vt 0.608660 0.704992
vt 0.712138 0.015573
vt 0.629073 0.377415
vt 0.880780 0.382536
vt 0.880780 0.382536
vt 0.283738 0.025961
vt 0.608660 0.392019
vt 0.901208 0.377758
vt 0.263261 0.012159
vt 0.901208 0.397988
vt 0.901208 0.397988
f 72/72/72 11/11/11 51/51/51
f 51/51/51 43/43/43 75/75/75
f 51/51/51 75/75/75 72/72/72
f 15/15/15 22/22/22 91/91/91
f 91/91/91 88/88/88 106/106/106
f 106/106/106 103/103/103 15/15/15
f 91/91/91 106/106/106 15/15/15
f 84/84/84 25/25/25 18/18/18
f 18/18/18 96/96/96 104/104/104
f 104/104/104 86/86/86 84/84/84
f 18/18/18 104/104/104 84/84/84
f 49/49/49 54/54/54 5/5/5
f 5/5/5 113/113/113 111/111/111
f 5/5/5 111/111/111 49/49/49
f 40/40/40 20/20/20 14/14/14
f 40/40/40 14/14/14 47/47/47
f 53/53/53 16/16/16 36/36/36
f 53/53/53 36/36/36 56/56/56
f 1/1/1 46/46/46 48/48/48
f 48/48/48 110/110/110 107/107/107
f 48/48/48 107/107/107 1/1/1
f 21/21/21 41/41/41 45/45/45
f 45/45/45 93/93/93 89/89/89
f 45/45/45 89/89/89 21/21/21
f 46/46/46 13/13/13 101/101/101
f 101/101/101 98/98/98 48/48/48
f 101/101/101 48/48/48 46/46/46
f 113/113/113 5/5/5 11/11/11
f 11/11/11 72/72/72 80/80/80
f 80/80/80 115/115/115 113/113/113
f 11/11/11 80/80/80 113/113/113
f 60/60/60 56/56/56 36/36/36
f 36/36/36 66/66/66 63/63/63
f 36/36/36 63/63/63 60/60/60
f 50/50/50 10/10/10 30/30/30
f 50/50/50 30/30/30 55/55/55
f 19/19/19 26/26/26 35/35/35
f 19/19/19 35/35/35 38/38/38
f 12/12/12 6/6/6 29/29/29
f 12/12/12 29/29/29 32/32/32
f 118/118/118 27/27/27 56/56/56
f 56/56/56 60/60/60 121/121/121
f 56/56/56 121/121/121 118/118/118
f 62/62/62 59/59/59 140/140/140
f 140/140/140 136/136/136 124/124/124
f 124/124/124 122/122/122 62/62/62
f 140/140/140 124/124/124 62/62/62
f 68/68/68 37/37/37 34/34/34
f 34/34/34 132/132/132 129/129/129
f 129/129/129 71/71/71 68/68/68
f 34/34/34 129/129/129 68/68/68
f 69/69/69 127/127/127 134/134/134
f 134/134/134 58/58/58 61/61/61
f 61/61/61 64/64/64 69/69/69
f 134/134/134 61/61/61 69/69/69
f 23/23/23 50/50/50 55/55/55
f 23/23/23 55/55/55 33/33/33
f 39/39/39 7/7/7 77/77/77
f 77/77/77 74/74/74 42/42/42
f 77/77/77 42/42/42 39/39/39
f 4/4/4 53/53/53 56/56/56
f 4/4/4 56/56/56 27/27/27
f 8/8/8 40/40/40 47/47/47
f 8/8/8 47/47/47 2/2/2
f 95/95/95 17/17/17 54/54/54
f 54/54/54 49/49/49 99/99/99
f 54/54/54 99/99/99 95/95/95
f 44/44/44 52/52/52 24/24/24
f 24/24/24 83/83/83 92/92/92
f 24/24/24 92/92/92 44/44/44
f 65/65/65 67/67/67 70/70/70
f 130/130/130 33/33/33 55/55/55
f 55/55/55 57/57/57 133/133/133
f 55/55/55 133/133/133 130/130/130
f 73/73/73 76/76/76 78/78/78
f 73/73/73 78/78/78 81/81/81
f 85/85/85 87/87/87 90/90/90
f 85/85/85 90/90/90 94/94/94
f 97/97/97 100/100/100 102/102/102
f 97/97/97 102/102/102 105/105/105
f 108/108/108 112/112/112 114/114/114
f 108/108/108 114/114/114 116/116/116
f 9/9/9 3/3/3 109/109/109
f 109/109/109 117/117/117 82/82/82
f 82/82/82 79/79/79 9/9/9
f 109/109/109 82/82/82 9/9/9
f 119/119/119 123/123/123 125/125/125
f 128/128/128 131/131/131 135/135/135
f 57/57/57 55/55/55 30/30/30
f 30/30/30 142/142/142 139/139/139
f 30/30/30 139/139/139 57/57/57
f 137/137/137 141/141/141 143/143/143
f 144/144/144 31/31/31 28/28/28
f 28/28/28 120/120/120 126/126/126
f 126/126/126 138/138/138 144/144/144
f 28/28/28 126/126/126 144/144/144
